%TF.GenerationSoftware,KiCad,Pcbnew,(5.1.9)-1*%
%TF.CreationDate,2021-03-08T13:05:13-05:00*%
%TF.ProjectId,eInk-picture-frame,65496e6b-2d70-4696-9374-7572652d6672,rev?*%
%TF.SameCoordinates,Original*%
%TF.FileFunction,Legend,Bot*%
%TF.FilePolarity,Positive*%
%FSLAX46Y46*%
G04 Gerber Fmt 4.6, Leading zero omitted, Abs format (unit mm)*
G04 Created by KiCad (PCBNEW (5.1.9)-1) date 2021-03-08 13:05:13*
%MOMM*%
%LPD*%
G01*
G04 APERTURE LIST*
%ADD10C,0.100000*%
%ADD11C,0.300000*%
%ADD12C,0.120000*%
%ADD13C,0.150000*%
G04 APERTURE END LIST*
D10*
X154392380Y-52101904D02*
X154392380Y-52720952D01*
X154773333Y-52387619D01*
X154773333Y-52530476D01*
X154820952Y-52625714D01*
X154868571Y-52673333D01*
X154963809Y-52720952D01*
X155201904Y-52720952D01*
X155297142Y-52673333D01*
X155344761Y-52625714D01*
X155392380Y-52530476D01*
X155392380Y-52244761D01*
X155344761Y-52149523D01*
X155297142Y-52101904D01*
X154392380Y-53006666D02*
X155392380Y-53340000D01*
X154392380Y-53673333D01*
X154392380Y-53911428D02*
X154392380Y-54530476D01*
X154773333Y-54197142D01*
X154773333Y-54340000D01*
X154820952Y-54435238D01*
X154868571Y-54482857D01*
X154963809Y-54530476D01*
X155201904Y-54530476D01*
X155297142Y-54482857D01*
X155344761Y-54435238D01*
X155392380Y-54340000D01*
X155392380Y-54054285D01*
X155344761Y-53959047D01*
X155297142Y-53911428D01*
X156980000Y-52578095D02*
X156932380Y-52482857D01*
X156932380Y-52340000D01*
X156980000Y-52197142D01*
X157075238Y-52101904D01*
X157170476Y-52054285D01*
X157360952Y-52006666D01*
X157503809Y-52006666D01*
X157694285Y-52054285D01*
X157789523Y-52101904D01*
X157884761Y-52197142D01*
X157932380Y-52340000D01*
X157932380Y-52435238D01*
X157884761Y-52578095D01*
X157837142Y-52625714D01*
X157503809Y-52625714D01*
X157503809Y-52435238D01*
X157932380Y-53054285D02*
X156932380Y-53054285D01*
X157932380Y-53625714D01*
X156932380Y-53625714D01*
X157932380Y-54101904D02*
X156932380Y-54101904D01*
X156932380Y-54340000D01*
X156980000Y-54482857D01*
X157075238Y-54578095D01*
X157170476Y-54625714D01*
X157360952Y-54673333D01*
X157503809Y-54673333D01*
X157694285Y-54625714D01*
X157789523Y-54578095D01*
X157884761Y-54482857D01*
X157932380Y-54340000D01*
X157932380Y-54101904D01*
X151852380Y-53149523D02*
X151852380Y-52673333D01*
X152328571Y-52625714D01*
X152280952Y-52673333D01*
X152233333Y-52768571D01*
X152233333Y-53006666D01*
X152280952Y-53101904D01*
X152328571Y-53149523D01*
X152423809Y-53197142D01*
X152661904Y-53197142D01*
X152757142Y-53149523D01*
X152804761Y-53101904D01*
X152852380Y-53006666D01*
X152852380Y-52768571D01*
X152804761Y-52673333D01*
X152757142Y-52625714D01*
X151852380Y-53482857D02*
X152852380Y-53816190D01*
X151852380Y-54149523D01*
X142692380Y-52792380D02*
X142216190Y-52459047D01*
X142692380Y-52220952D02*
X141692380Y-52220952D01*
X141692380Y-52601904D01*
X141740000Y-52697142D01*
X141787619Y-52744761D01*
X141882857Y-52792380D01*
X142025714Y-52792380D01*
X142120952Y-52744761D01*
X142168571Y-52697142D01*
X142216190Y-52601904D01*
X142216190Y-52220952D01*
X142644761Y-53173333D02*
X142692380Y-53316190D01*
X142692380Y-53554285D01*
X142644761Y-53649523D01*
X142597142Y-53697142D01*
X142501904Y-53744761D01*
X142406666Y-53744761D01*
X142311428Y-53697142D01*
X142263809Y-53649523D01*
X142216190Y-53554285D01*
X142168571Y-53363809D01*
X142120952Y-53268571D01*
X142073333Y-53220952D01*
X141978095Y-53173333D01*
X141882857Y-53173333D01*
X141787619Y-53220952D01*
X141740000Y-53268571D01*
X141692380Y-53363809D01*
X141692380Y-53601904D01*
X141740000Y-53744761D01*
X141692380Y-54030476D02*
X141692380Y-54601904D01*
X142692380Y-54316190D02*
X141692380Y-54316190D01*
X139152380Y-51530476D02*
X140152380Y-51768571D01*
X139438095Y-51959047D01*
X140152380Y-52149523D01*
X139152380Y-52387619D01*
X139866666Y-52720952D02*
X139866666Y-53197142D01*
X140152380Y-52625714D02*
X139152380Y-52959047D01*
X140152380Y-53292380D01*
X140152380Y-53625714D02*
X139152380Y-53625714D01*
X140152380Y-54197142D02*
X139580952Y-53768571D01*
X139152380Y-54197142D02*
X139723809Y-53625714D01*
X139628571Y-54625714D02*
X139628571Y-54959047D01*
X140152380Y-55101904D02*
X140152380Y-54625714D01*
X139152380Y-54625714D01*
X139152380Y-55101904D01*
X137612380Y-52316190D02*
X136612380Y-52316190D01*
X136612380Y-52554285D01*
X136660000Y-52697142D01*
X136755238Y-52792380D01*
X136850476Y-52840000D01*
X137040952Y-52887619D01*
X137183809Y-52887619D01*
X137374285Y-52840000D01*
X137469523Y-52792380D01*
X137564761Y-52697142D01*
X137612380Y-52554285D01*
X137612380Y-52316190D01*
X137612380Y-53316190D02*
X136612380Y-53316190D01*
X137612380Y-53792380D02*
X136612380Y-53792380D01*
X137612380Y-54363809D01*
X136612380Y-54363809D01*
X135072380Y-51649523D02*
X134072380Y-51649523D01*
X134072380Y-51887619D01*
X134120000Y-52030476D01*
X134215238Y-52125714D01*
X134310476Y-52173333D01*
X134500952Y-52220952D01*
X134643809Y-52220952D01*
X134834285Y-52173333D01*
X134929523Y-52125714D01*
X135024761Y-52030476D01*
X135072380Y-51887619D01*
X135072380Y-51649523D01*
X134072380Y-52840000D02*
X134072380Y-53030476D01*
X134120000Y-53125714D01*
X134215238Y-53220952D01*
X134405714Y-53268571D01*
X134739047Y-53268571D01*
X134929523Y-53220952D01*
X135024761Y-53125714D01*
X135072380Y-53030476D01*
X135072380Y-52840000D01*
X135024761Y-52744761D01*
X134929523Y-52649523D01*
X134739047Y-52601904D01*
X134405714Y-52601904D01*
X134215238Y-52649523D01*
X134120000Y-52744761D01*
X134072380Y-52840000D01*
X134072380Y-53697142D02*
X134881904Y-53697142D01*
X134977142Y-53744761D01*
X135024761Y-53792380D01*
X135072380Y-53887619D01*
X135072380Y-54078095D01*
X135024761Y-54173333D01*
X134977142Y-54220952D01*
X134881904Y-54268571D01*
X134072380Y-54268571D01*
X134072380Y-54601904D02*
X134072380Y-55173333D01*
X135072380Y-54887619D02*
X134072380Y-54887619D01*
X131580000Y-52578095D02*
X131532380Y-52482857D01*
X131532380Y-52340000D01*
X131580000Y-52197142D01*
X131675238Y-52101904D01*
X131770476Y-52054285D01*
X131960952Y-52006666D01*
X132103809Y-52006666D01*
X132294285Y-52054285D01*
X132389523Y-52101904D01*
X132484761Y-52197142D01*
X132532380Y-52340000D01*
X132532380Y-52435238D01*
X132484761Y-52578095D01*
X132437142Y-52625714D01*
X132103809Y-52625714D01*
X132103809Y-52435238D01*
X132532380Y-53054285D02*
X131532380Y-53054285D01*
X132532380Y-53625714D01*
X131532380Y-53625714D01*
X132532380Y-54101904D02*
X131532380Y-54101904D01*
X131532380Y-54340000D01*
X131580000Y-54482857D01*
X131675238Y-54578095D01*
X131770476Y-54625714D01*
X131960952Y-54673333D01*
X132103809Y-54673333D01*
X132294285Y-54625714D01*
X132389523Y-54578095D01*
X132484761Y-54482857D01*
X132532380Y-54340000D01*
X132532380Y-54101904D01*
X128992380Y-52006666D02*
X129992380Y-52340000D01*
X128992380Y-52673333D01*
X129897142Y-53578095D02*
X129944761Y-53530476D01*
X129992380Y-53387619D01*
X129992380Y-53292380D01*
X129944761Y-53149523D01*
X129849523Y-53054285D01*
X129754285Y-53006666D01*
X129563809Y-52959047D01*
X129420952Y-52959047D01*
X129230476Y-53006666D01*
X129135238Y-53054285D01*
X129040000Y-53149523D01*
X128992380Y-53292380D01*
X128992380Y-53387619D01*
X129040000Y-53530476D01*
X129087619Y-53578095D01*
X129897142Y-54578095D02*
X129944761Y-54530476D01*
X129992380Y-54387619D01*
X129992380Y-54292380D01*
X129944761Y-54149523D01*
X129849523Y-54054285D01*
X129754285Y-54006666D01*
X129563809Y-53959047D01*
X129420952Y-53959047D01*
X129230476Y-54006666D01*
X129135238Y-54054285D01*
X129040000Y-54149523D01*
X128992380Y-54292380D01*
X128992380Y-54387619D01*
X129040000Y-54530476D01*
X129087619Y-54578095D01*
X90940000Y-52578095D02*
X90892380Y-52482857D01*
X90892380Y-52340000D01*
X90940000Y-52197142D01*
X91035238Y-52101904D01*
X91130476Y-52054285D01*
X91320952Y-52006666D01*
X91463809Y-52006666D01*
X91654285Y-52054285D01*
X91749523Y-52101904D01*
X91844761Y-52197142D01*
X91892380Y-52340000D01*
X91892380Y-52435238D01*
X91844761Y-52578095D01*
X91797142Y-52625714D01*
X91463809Y-52625714D01*
X91463809Y-52435238D01*
X91892380Y-53054285D02*
X90892380Y-53054285D01*
X91892380Y-53625714D01*
X90892380Y-53625714D01*
X91892380Y-54101904D02*
X90892380Y-54101904D01*
X90892380Y-54340000D01*
X90940000Y-54482857D01*
X91035238Y-54578095D01*
X91130476Y-54625714D01*
X91320952Y-54673333D01*
X91463809Y-54673333D01*
X91654285Y-54625714D01*
X91749523Y-54578095D01*
X91844761Y-54482857D01*
X91892380Y-54340000D01*
X91892380Y-54101904D01*
X94384761Y-52054285D02*
X94432380Y-52197142D01*
X94432380Y-52435238D01*
X94384761Y-52530476D01*
X94337142Y-52578095D01*
X94241904Y-52625714D01*
X94146666Y-52625714D01*
X94051428Y-52578095D01*
X94003809Y-52530476D01*
X93956190Y-52435238D01*
X93908571Y-52244761D01*
X93860952Y-52149523D01*
X93813333Y-52101904D01*
X93718095Y-52054285D01*
X93622857Y-52054285D01*
X93527619Y-52101904D01*
X93480000Y-52149523D01*
X93432380Y-52244761D01*
X93432380Y-52482857D01*
X93480000Y-52625714D01*
X94337142Y-53625714D02*
X94384761Y-53578095D01*
X94432380Y-53435238D01*
X94432380Y-53340000D01*
X94384761Y-53197142D01*
X94289523Y-53101904D01*
X94194285Y-53054285D01*
X94003809Y-53006666D01*
X93860952Y-53006666D01*
X93670476Y-53054285D01*
X93575238Y-53101904D01*
X93480000Y-53197142D01*
X93432380Y-53340000D01*
X93432380Y-53435238D01*
X93480000Y-53578095D01*
X93527619Y-53625714D01*
X94432380Y-54054285D02*
X93432380Y-54054285D01*
X94432380Y-54625714D02*
X93860952Y-54197142D01*
X93432380Y-54625714D02*
X94003809Y-54054285D01*
X96972380Y-51768571D02*
X95972380Y-51768571D01*
X96686666Y-52101904D01*
X95972380Y-52435238D01*
X96972380Y-52435238D01*
X96972380Y-52911428D02*
X95972380Y-52911428D01*
X96924761Y-53340000D02*
X96972380Y-53482857D01*
X96972380Y-53720952D01*
X96924761Y-53816190D01*
X96877142Y-53863809D01*
X96781904Y-53911428D01*
X96686666Y-53911428D01*
X96591428Y-53863809D01*
X96543809Y-53816190D01*
X96496190Y-53720952D01*
X96448571Y-53530476D01*
X96400952Y-53435238D01*
X96353333Y-53387619D01*
X96258095Y-53340000D01*
X96162857Y-53340000D01*
X96067619Y-53387619D01*
X96020000Y-53435238D01*
X95972380Y-53530476D01*
X95972380Y-53768571D01*
X96020000Y-53911428D01*
X95972380Y-54530476D02*
X95972380Y-54720952D01*
X96020000Y-54816190D01*
X96115238Y-54911428D01*
X96305714Y-54959047D01*
X96639047Y-54959047D01*
X96829523Y-54911428D01*
X96924761Y-54816190D01*
X96972380Y-54720952D01*
X96972380Y-54530476D01*
X96924761Y-54435238D01*
X96829523Y-54340000D01*
X96639047Y-54292380D01*
X96305714Y-54292380D01*
X96115238Y-54340000D01*
X96020000Y-54435238D01*
X95972380Y-54530476D01*
X99512380Y-51768571D02*
X98512380Y-51768571D01*
X99226666Y-52101904D01*
X98512380Y-52435238D01*
X99512380Y-52435238D01*
X98512380Y-53101904D02*
X98512380Y-53292380D01*
X98560000Y-53387619D01*
X98655238Y-53482857D01*
X98845714Y-53530476D01*
X99179047Y-53530476D01*
X99369523Y-53482857D01*
X99464761Y-53387619D01*
X99512380Y-53292380D01*
X99512380Y-53101904D01*
X99464761Y-53006666D01*
X99369523Y-52911428D01*
X99179047Y-52863809D01*
X98845714Y-52863809D01*
X98655238Y-52911428D01*
X98560000Y-53006666D01*
X98512380Y-53101904D01*
X99464761Y-53911428D02*
X99512380Y-54054285D01*
X99512380Y-54292380D01*
X99464761Y-54387619D01*
X99417142Y-54435238D01*
X99321904Y-54482857D01*
X99226666Y-54482857D01*
X99131428Y-54435238D01*
X99083809Y-54387619D01*
X99036190Y-54292380D01*
X98988571Y-54101904D01*
X98940952Y-54006666D01*
X98893333Y-53959047D01*
X98798095Y-53911428D01*
X98702857Y-53911428D01*
X98607619Y-53959047D01*
X98560000Y-54006666D01*
X98512380Y-54101904D01*
X98512380Y-54340000D01*
X98560000Y-54482857D01*
X99512380Y-54911428D02*
X98512380Y-54911428D01*
X102052380Y-52792380D02*
X101576190Y-52459047D01*
X102052380Y-52220952D02*
X101052380Y-52220952D01*
X101052380Y-52601904D01*
X101100000Y-52697142D01*
X101147619Y-52744761D01*
X101242857Y-52792380D01*
X101385714Y-52792380D01*
X101480952Y-52744761D01*
X101528571Y-52697142D01*
X101576190Y-52601904D01*
X101576190Y-52220952D01*
X102004761Y-53173333D02*
X102052380Y-53316190D01*
X102052380Y-53554285D01*
X102004761Y-53649523D01*
X101957142Y-53697142D01*
X101861904Y-53744761D01*
X101766666Y-53744761D01*
X101671428Y-53697142D01*
X101623809Y-53649523D01*
X101576190Y-53554285D01*
X101528571Y-53363809D01*
X101480952Y-53268571D01*
X101433333Y-53220952D01*
X101338095Y-53173333D01*
X101242857Y-53173333D01*
X101147619Y-53220952D01*
X101100000Y-53268571D01*
X101052380Y-53363809D01*
X101052380Y-53601904D01*
X101100000Y-53744761D01*
X101052380Y-54030476D02*
X101052380Y-54601904D01*
X102052380Y-54316190D02*
X101052380Y-54316190D01*
X103592380Y-53149523D02*
X103592380Y-52673333D01*
X104068571Y-52625714D01*
X104020952Y-52673333D01*
X103973333Y-52768571D01*
X103973333Y-53006666D01*
X104020952Y-53101904D01*
X104068571Y-53149523D01*
X104163809Y-53197142D01*
X104401904Y-53197142D01*
X104497142Y-53149523D01*
X104544761Y-53101904D01*
X104592380Y-53006666D01*
X104592380Y-52768571D01*
X104544761Y-52673333D01*
X104497142Y-52625714D01*
X103592380Y-53482857D02*
X104592380Y-53816190D01*
X103592380Y-54149523D01*
X121372380Y-53149523D02*
X121372380Y-52673333D01*
X121848571Y-52625714D01*
X121800952Y-52673333D01*
X121753333Y-52768571D01*
X121753333Y-53006666D01*
X121800952Y-53101904D01*
X121848571Y-53149523D01*
X121943809Y-53197142D01*
X122181904Y-53197142D01*
X122277142Y-53149523D01*
X122324761Y-53101904D01*
X122372380Y-53006666D01*
X122372380Y-52768571D01*
X122324761Y-52673333D01*
X122277142Y-52625714D01*
X121372380Y-53482857D02*
X122372380Y-53816190D01*
X121372380Y-54149523D01*
X118832380Y-52101904D02*
X118832380Y-52720952D01*
X119213333Y-52387619D01*
X119213333Y-52530476D01*
X119260952Y-52625714D01*
X119308571Y-52673333D01*
X119403809Y-52720952D01*
X119641904Y-52720952D01*
X119737142Y-52673333D01*
X119784761Y-52625714D01*
X119832380Y-52530476D01*
X119832380Y-52244761D01*
X119784761Y-52149523D01*
X119737142Y-52101904D01*
X118832380Y-53006666D02*
X119832380Y-53340000D01*
X118832380Y-53673333D01*
X118832380Y-53911428D02*
X118832380Y-54530476D01*
X119213333Y-54197142D01*
X119213333Y-54340000D01*
X119260952Y-54435238D01*
X119308571Y-54482857D01*
X119403809Y-54530476D01*
X119641904Y-54530476D01*
X119737142Y-54482857D01*
X119784761Y-54435238D01*
X119832380Y-54340000D01*
X119832380Y-54054285D01*
X119784761Y-53959047D01*
X119737142Y-53911428D01*
X116292380Y-52578095D02*
X116292380Y-53149523D01*
X117292380Y-52863809D02*
X116292380Y-52863809D01*
X116292380Y-53387619D02*
X117292380Y-54054285D01*
X116292380Y-54054285D02*
X117292380Y-53387619D01*
X114752380Y-53173333D02*
X114276190Y-52840000D01*
X114752380Y-52601904D02*
X113752380Y-52601904D01*
X113752380Y-52982857D01*
X113800000Y-53078095D01*
X113847619Y-53125714D01*
X113942857Y-53173333D01*
X114085714Y-53173333D01*
X114180952Y-53125714D01*
X114228571Y-53078095D01*
X114276190Y-52982857D01*
X114276190Y-52601904D01*
X113752380Y-53506666D02*
X114752380Y-54173333D01*
X113752380Y-54173333D02*
X114752380Y-53506666D01*
X111260000Y-52578095D02*
X111212380Y-52482857D01*
X111212380Y-52340000D01*
X111260000Y-52197142D01*
X111355238Y-52101904D01*
X111450476Y-52054285D01*
X111640952Y-52006666D01*
X111783809Y-52006666D01*
X111974285Y-52054285D01*
X112069523Y-52101904D01*
X112164761Y-52197142D01*
X112212380Y-52340000D01*
X112212380Y-52435238D01*
X112164761Y-52578095D01*
X112117142Y-52625714D01*
X111783809Y-52625714D01*
X111783809Y-52435238D01*
X112212380Y-53054285D02*
X111212380Y-53054285D01*
X112212380Y-53625714D01*
X111212380Y-53625714D01*
X112212380Y-54101904D02*
X111212380Y-54101904D01*
X111212380Y-54340000D01*
X111260000Y-54482857D01*
X111355238Y-54578095D01*
X111450476Y-54625714D01*
X111640952Y-54673333D01*
X111783809Y-54673333D01*
X111974285Y-54625714D01*
X112069523Y-54578095D01*
X112164761Y-54482857D01*
X112212380Y-54340000D01*
X112212380Y-54101904D01*
D11*
X195682142Y-95164285D02*
X195682142Y-96307142D01*
X195682142Y-97021428D02*
X195682142Y-98164285D01*
X195467857Y-98878571D02*
X195467857Y-99378571D01*
X196253571Y-99592857D02*
X196253571Y-98878571D01*
X194753571Y-98878571D01*
X194753571Y-99592857D01*
X196253571Y-100235714D02*
X194753571Y-100235714D01*
X196253571Y-101092857D01*
X194753571Y-101092857D01*
X196182142Y-101735714D02*
X196253571Y-101950000D01*
X196253571Y-102307142D01*
X196182142Y-102450000D01*
X196110714Y-102521428D01*
X195967857Y-102592857D01*
X195825000Y-102592857D01*
X195682142Y-102521428D01*
X195610714Y-102450000D01*
X195539285Y-102307142D01*
X195467857Y-102021428D01*
X195396428Y-101878571D01*
X195325000Y-101807142D01*
X195182142Y-101735714D01*
X195039285Y-101735714D01*
X194896428Y-101807142D01*
X194825000Y-101878571D01*
X194753571Y-102021428D01*
X194753571Y-102378571D01*
X194825000Y-102592857D01*
X194753571Y-103235714D02*
X195967857Y-103235714D01*
X196110714Y-103307142D01*
X196182142Y-103378571D01*
X196253571Y-103521428D01*
X196253571Y-103807142D01*
X196182142Y-103950000D01*
X196110714Y-104021428D01*
X195967857Y-104092857D01*
X194753571Y-104092857D01*
X196253571Y-105664285D02*
X195539285Y-105164285D01*
X196253571Y-104807142D02*
X194753571Y-104807142D01*
X194753571Y-105378571D01*
X194825000Y-105521428D01*
X194896428Y-105592857D01*
X195039285Y-105664285D01*
X195253571Y-105664285D01*
X195396428Y-105592857D01*
X195467857Y-105521428D01*
X195539285Y-105378571D01*
X195539285Y-104807142D01*
X195467857Y-106307142D02*
X195467857Y-106807142D01*
X196253571Y-107021428D02*
X196253571Y-106307142D01*
X194753571Y-106307142D01*
X194753571Y-107021428D01*
X196110714Y-109664285D02*
X196182142Y-109592857D01*
X196253571Y-109378571D01*
X196253571Y-109235714D01*
X196182142Y-109021428D01*
X196039285Y-108878571D01*
X195896428Y-108807142D01*
X195610714Y-108735714D01*
X195396428Y-108735714D01*
X195110714Y-108807142D01*
X194967857Y-108878571D01*
X194825000Y-109021428D01*
X194753571Y-109235714D01*
X194753571Y-109378571D01*
X194825000Y-109592857D01*
X194896428Y-109664285D01*
X194753571Y-110592857D02*
X194753571Y-110878571D01*
X194825000Y-111021428D01*
X194967857Y-111164285D01*
X195253571Y-111235714D01*
X195753571Y-111235714D01*
X196039285Y-111164285D01*
X196182142Y-111021428D01*
X196253571Y-110878571D01*
X196253571Y-110592857D01*
X196182142Y-110450000D01*
X196039285Y-110307142D01*
X195753571Y-110235714D01*
X195253571Y-110235714D01*
X194967857Y-110307142D01*
X194825000Y-110450000D01*
X194753571Y-110592857D01*
X196253571Y-112735714D02*
X195539285Y-112235714D01*
X196253571Y-111878571D02*
X194753571Y-111878571D01*
X194753571Y-112450000D01*
X194825000Y-112592857D01*
X194896428Y-112664285D01*
X195039285Y-112735714D01*
X195253571Y-112735714D01*
X195396428Y-112664285D01*
X195467857Y-112592857D01*
X195539285Y-112450000D01*
X195539285Y-111878571D01*
X196253571Y-114235714D02*
X195539285Y-113735714D01*
X196253571Y-113378571D02*
X194753571Y-113378571D01*
X194753571Y-113950000D01*
X194825000Y-114092857D01*
X194896428Y-114164285D01*
X195039285Y-114235714D01*
X195253571Y-114235714D01*
X195396428Y-114164285D01*
X195467857Y-114092857D01*
X195539285Y-113950000D01*
X195539285Y-113378571D01*
X195467857Y-114878571D02*
X195467857Y-115378571D01*
X196253571Y-115592857D02*
X196253571Y-114878571D01*
X194753571Y-114878571D01*
X194753571Y-115592857D01*
X196110714Y-117092857D02*
X196182142Y-117021428D01*
X196253571Y-116807142D01*
X196253571Y-116664285D01*
X196182142Y-116450000D01*
X196039285Y-116307142D01*
X195896428Y-116235714D01*
X195610714Y-116164285D01*
X195396428Y-116164285D01*
X195110714Y-116235714D01*
X194967857Y-116307142D01*
X194825000Y-116450000D01*
X194753571Y-116664285D01*
X194753571Y-116807142D01*
X194825000Y-117021428D01*
X194896428Y-117092857D01*
X194753571Y-117521428D02*
X194753571Y-118378571D01*
X196253571Y-117950000D02*
X194753571Y-117950000D01*
X195682142Y-118878571D02*
X195682142Y-120021428D01*
X195682142Y-120735714D02*
X195682142Y-121878571D01*
X198232142Y-93950000D02*
X198232142Y-95092857D01*
X198232142Y-95807142D02*
X198232142Y-96950000D01*
X198017857Y-98164285D02*
X198089285Y-98378571D01*
X198160714Y-98450000D01*
X198303571Y-98521428D01*
X198517857Y-98521428D01*
X198660714Y-98450000D01*
X198732142Y-98378571D01*
X198803571Y-98235714D01*
X198803571Y-97664285D01*
X197303571Y-97664285D01*
X197303571Y-98164285D01*
X197375000Y-98307142D01*
X197446428Y-98378571D01*
X197589285Y-98450000D01*
X197732142Y-98450000D01*
X197875000Y-98378571D01*
X197946428Y-98307142D01*
X198017857Y-98164285D01*
X198017857Y-97664285D01*
X198375000Y-99092857D02*
X198375000Y-99807142D01*
X198803571Y-98950000D02*
X197303571Y-99450000D01*
X198803571Y-99950000D01*
X197303571Y-100235714D02*
X197303571Y-101092857D01*
X198803571Y-100664285D02*
X197303571Y-100664285D01*
X197303571Y-101378571D02*
X197303571Y-102235714D01*
X198803571Y-101807142D02*
X197303571Y-101807142D01*
X198017857Y-102735714D02*
X198017857Y-103235714D01*
X198803571Y-103450000D02*
X198803571Y-102735714D01*
X197303571Y-102735714D01*
X197303571Y-103450000D01*
X198803571Y-104950000D02*
X198089285Y-104450000D01*
X198803571Y-104092857D02*
X197303571Y-104092857D01*
X197303571Y-104664285D01*
X197375000Y-104807142D01*
X197446428Y-104878571D01*
X197589285Y-104950000D01*
X197803571Y-104950000D01*
X197946428Y-104878571D01*
X198017857Y-104807142D01*
X198089285Y-104664285D01*
X198089285Y-104092857D01*
X198089285Y-105878571D02*
X198803571Y-105878571D01*
X197303571Y-105378571D02*
X198089285Y-105878571D01*
X197303571Y-106378571D01*
X198803571Y-108021428D02*
X197303571Y-108021428D01*
X197303571Y-108592857D01*
X197375000Y-108735714D01*
X197446428Y-108807142D01*
X197589285Y-108878571D01*
X197803571Y-108878571D01*
X197946428Y-108807142D01*
X198017857Y-108735714D01*
X198089285Y-108592857D01*
X198089285Y-108021428D01*
X197303571Y-109807142D02*
X197303571Y-110092857D01*
X197375000Y-110235714D01*
X197517857Y-110378571D01*
X197803571Y-110450000D01*
X198303571Y-110450000D01*
X198589285Y-110378571D01*
X198732142Y-110235714D01*
X198803571Y-110092857D01*
X198803571Y-109807142D01*
X198732142Y-109664285D01*
X198589285Y-109521428D01*
X198303571Y-109450000D01*
X197803571Y-109450000D01*
X197517857Y-109521428D01*
X197375000Y-109664285D01*
X197303571Y-109807142D01*
X198803571Y-111807142D02*
X198803571Y-111092857D01*
X197303571Y-111092857D01*
X198375000Y-112235714D02*
X198375000Y-112950000D01*
X198803571Y-112092857D02*
X197303571Y-112592857D01*
X198803571Y-113092857D01*
X198803571Y-114450000D02*
X198089285Y-113950000D01*
X198803571Y-113592857D02*
X197303571Y-113592857D01*
X197303571Y-114164285D01*
X197375000Y-114307142D01*
X197446428Y-114378571D01*
X197589285Y-114450000D01*
X197803571Y-114450000D01*
X197946428Y-114378571D01*
X198017857Y-114307142D01*
X198089285Y-114164285D01*
X198089285Y-113592857D01*
X198803571Y-115092857D02*
X197303571Y-115092857D01*
X197303571Y-115592857D02*
X197303571Y-116450000D01*
X198803571Y-116021428D02*
X197303571Y-116021428D01*
X198089285Y-117235714D02*
X198803571Y-117235714D01*
X197303571Y-116735714D02*
X198089285Y-117235714D01*
X197303571Y-117735714D01*
X198660714Y-118235714D02*
X198732142Y-118307142D01*
X198803571Y-118235714D01*
X198732142Y-118164285D01*
X198660714Y-118235714D01*
X198803571Y-118235714D01*
X198232142Y-118235714D02*
X197375000Y-118164285D01*
X197303571Y-118235714D01*
X197375000Y-118307142D01*
X198232142Y-118235714D01*
X197303571Y-118235714D01*
X198232142Y-118950000D02*
X198232142Y-120092857D01*
X198232142Y-120807142D02*
X198232142Y-121950000D01*
D12*
%TO.C,J3*%
X158810000Y-48200000D02*
X158810000Y-50860000D01*
X153670000Y-48200000D02*
X158810000Y-48200000D01*
X153670000Y-50860000D02*
X158810000Y-50860000D01*
X153670000Y-48200000D02*
X153670000Y-50860000D01*
X152400000Y-48200000D02*
X151070000Y-48200000D01*
X151070000Y-48200000D02*
X151070000Y-49530000D01*
%TO.C,Y1*%
X116825000Y-127495000D02*
G75*
G02*
X111775000Y-127495000I-2525000J0D01*
G01*
X116825000Y-121245000D02*
G75*
G03*
X111775000Y-121245000I-2525000J0D01*
G01*
X111775000Y-121245000D02*
X111775000Y-127495000D01*
X116825000Y-121245000D02*
X116825000Y-127495000D01*
%TO.C,U6*%
X177800000Y-50800000D02*
X177800000Y-43180000D01*
X177800000Y-43180000D02*
X187960000Y-43180000D01*
X187960000Y-43180000D02*
X187960000Y-50800000D01*
X187960000Y-50800000D02*
X177800000Y-50800000D01*
X185169525Y-46990000D02*
G75*
G03*
X185169525Y-46990000I-2289525J0D01*
G01*
X180340000Y-49530000D02*
X185420000Y-49530000D01*
X185420000Y-49530000D02*
X185420000Y-44450000D01*
X185420000Y-44450000D02*
X180340000Y-44450000D01*
X180340000Y-44450000D02*
X180340000Y-49530000D01*
%TO.C,U5*%
X101870000Y-101540000D02*
G75*
G03*
X103870000Y-101540000I1000000J0D01*
G01*
X103870000Y-101540000D02*
X105520000Y-101540000D01*
X105520000Y-101540000D02*
X105520000Y-137220000D01*
X105520000Y-137220000D02*
X100220000Y-137220000D01*
X100220000Y-137220000D02*
X100220000Y-101540000D01*
X100220000Y-101540000D02*
X101870000Y-101540000D01*
%TO.C,U4*%
X128210000Y-50860000D02*
X128210000Y-48200000D01*
X140970000Y-50860000D02*
X128210000Y-50860000D01*
X140970000Y-48200000D02*
X128210000Y-48200000D01*
X140970000Y-50860000D02*
X140970000Y-48200000D01*
X142240000Y-50860000D02*
X143570000Y-50860000D01*
X143570000Y-50860000D02*
X143570000Y-49530000D01*
%TO.C,U2*%
X175260000Y-43180000D02*
X175260000Y-50800000D01*
X175260000Y-50800000D02*
X165100000Y-50800000D01*
X165100000Y-50800000D02*
X165100000Y-43180000D01*
X165100000Y-43180000D02*
X175260000Y-43180000D01*
X172469525Y-46990000D02*
G75*
G03*
X172469525Y-46990000I-2289525J0D01*
G01*
X172720000Y-44450000D02*
X167640000Y-44450000D01*
X167640000Y-44450000D02*
X167640000Y-49530000D01*
X167640000Y-49530000D02*
X172720000Y-49530000D01*
X172720000Y-49530000D02*
X172720000Y-44450000D01*
%TO.C,R11*%
X129640000Y-76930000D02*
X126900000Y-76930000D01*
X126900000Y-76930000D02*
X126900000Y-70390000D01*
X126900000Y-70390000D02*
X129640000Y-70390000D01*
X129640000Y-70390000D02*
X129640000Y-76930000D01*
X128270000Y-77700000D02*
X128270000Y-76930000D01*
X128270000Y-69620000D02*
X128270000Y-70390000D01*
%TO.C,R10*%
X130710000Y-70390000D02*
X133450000Y-70390000D01*
X133450000Y-70390000D02*
X133450000Y-76930000D01*
X133450000Y-76930000D02*
X130710000Y-76930000D01*
X130710000Y-76930000D02*
X130710000Y-70390000D01*
X132080000Y-69620000D02*
X132080000Y-70390000D01*
X132080000Y-77700000D02*
X132080000Y-76930000D01*
%TO.C,R9*%
X180440000Y-76930000D02*
X177700000Y-76930000D01*
X177700000Y-76930000D02*
X177700000Y-70390000D01*
X177700000Y-70390000D02*
X180440000Y-70390000D01*
X180440000Y-70390000D02*
X180440000Y-76930000D01*
X179070000Y-77700000D02*
X179070000Y-76930000D01*
X179070000Y-69620000D02*
X179070000Y-70390000D01*
%TO.C,R8*%
X119280000Y-70390000D02*
X122020000Y-70390000D01*
X122020000Y-70390000D02*
X122020000Y-76930000D01*
X122020000Y-76930000D02*
X119280000Y-76930000D01*
X119280000Y-76930000D02*
X119280000Y-70390000D01*
X120650000Y-69620000D02*
X120650000Y-70390000D01*
X120650000Y-77700000D02*
X120650000Y-76930000D01*
%TO.C,R7*%
X123090000Y-70390000D02*
X125830000Y-70390000D01*
X125830000Y-70390000D02*
X125830000Y-76930000D01*
X125830000Y-76930000D02*
X123090000Y-76930000D01*
X123090000Y-76930000D02*
X123090000Y-70390000D01*
X124460000Y-69620000D02*
X124460000Y-70390000D01*
X124460000Y-77700000D02*
X124460000Y-76930000D01*
%TO.C,R6*%
X167740000Y-76930000D02*
X165000000Y-76930000D01*
X165000000Y-76930000D02*
X165000000Y-70390000D01*
X165000000Y-70390000D02*
X167740000Y-70390000D01*
X167740000Y-70390000D02*
X167740000Y-76930000D01*
X166370000Y-77700000D02*
X166370000Y-76930000D01*
X166370000Y-69620000D02*
X166370000Y-70390000D01*
%TO.C,R5*%
X134520000Y-70390000D02*
X137260000Y-70390000D01*
X137260000Y-70390000D02*
X137260000Y-76930000D01*
X137260000Y-76930000D02*
X134520000Y-76930000D01*
X134520000Y-76930000D02*
X134520000Y-70390000D01*
X135890000Y-69620000D02*
X135890000Y-70390000D01*
X135890000Y-77700000D02*
X135890000Y-76930000D01*
%TO.C,R4*%
X138330000Y-70390000D02*
X141070000Y-70390000D01*
X141070000Y-70390000D02*
X141070000Y-76930000D01*
X141070000Y-76930000D02*
X138330000Y-76930000D01*
X138330000Y-76930000D02*
X138330000Y-70390000D01*
X139700000Y-69620000D02*
X139700000Y-70390000D01*
X139700000Y-77700000D02*
X139700000Y-76930000D01*
%TO.C,R1*%
X144880000Y-76930000D02*
X142140000Y-76930000D01*
X142140000Y-76930000D02*
X142140000Y-70390000D01*
X142140000Y-70390000D02*
X144880000Y-70390000D01*
X144880000Y-70390000D02*
X144880000Y-76930000D01*
X143510000Y-77700000D02*
X143510000Y-76930000D01*
X143510000Y-69620000D02*
X143510000Y-70390000D01*
%TO.C,J2*%
X90110000Y-50860000D02*
X90110000Y-48200000D01*
X102870000Y-50860000D02*
X90110000Y-50860000D01*
X102870000Y-48200000D02*
X90110000Y-48200000D01*
X102870000Y-50860000D02*
X102870000Y-48200000D01*
X104140000Y-50860000D02*
X105470000Y-50860000D01*
X105470000Y-50860000D02*
X105470000Y-49530000D01*
%TO.C,J1*%
X110430000Y-50860000D02*
X110430000Y-48200000D01*
X120650000Y-50860000D02*
X110430000Y-50860000D01*
X120650000Y-48200000D02*
X110430000Y-48200000D01*
X120650000Y-50860000D02*
X120650000Y-48200000D01*
X121920000Y-50860000D02*
X123250000Y-50860000D01*
X123250000Y-50860000D02*
X123250000Y-49530000D01*
%TO.C,C2*%
X120041000Y-127920000D02*
X121299000Y-127920000D01*
X120041000Y-126080000D02*
X121299000Y-126080000D01*
%TO.C,C1*%
X120001000Y-122840000D02*
X121259000Y-122840000D01*
X120001000Y-121000000D02*
X121259000Y-121000000D01*
%TO.C,U3*%
X193040000Y-44450000D02*
X193040000Y-49530000D01*
X198120000Y-44450000D02*
X193040000Y-44450000D01*
X198120000Y-49530000D02*
X198120000Y-44450000D01*
X193040000Y-49530000D02*
X198120000Y-49530000D01*
X197869525Y-46990000D02*
G75*
G03*
X197869525Y-46990000I-2289525J0D01*
G01*
X200660000Y-50800000D02*
X190500000Y-50800000D01*
X200660000Y-43180000D02*
X200660000Y-50800000D01*
X190500000Y-43180000D02*
X200660000Y-43180000D01*
X190500000Y-50800000D02*
X190500000Y-43180000D01*
%TO.C,U1*%
X110990000Y-66620000D02*
X94750000Y-66620000D01*
X94750000Y-66620000D02*
X94750000Y-74240000D01*
X94750000Y-90240000D02*
X94750000Y-90860000D01*
X94750000Y-90860000D02*
X96870000Y-90860000D01*
X108870000Y-90860000D02*
X110990000Y-90860000D01*
X110990000Y-90860000D02*
X110990000Y-90240000D01*
X110990000Y-74240000D02*
X110990000Y-66620000D01*
X110990000Y-74240000D02*
X111600000Y-74240000D01*
%TO.C,R3*%
X90170000Y-96750000D02*
X90170000Y-95980000D01*
X90170000Y-88670000D02*
X90170000Y-89440000D01*
X88800000Y-95980000D02*
X88800000Y-89440000D01*
X91540000Y-95980000D02*
X88800000Y-95980000D01*
X91540000Y-89440000D02*
X91540000Y-95980000D01*
X88800000Y-89440000D02*
X91540000Y-89440000D01*
%TO.C,R2*%
X191770000Y-69620000D02*
X191770000Y-70390000D01*
X191770000Y-77700000D02*
X191770000Y-76930000D01*
X193140000Y-70390000D02*
X193140000Y-76930000D01*
X190400000Y-70390000D02*
X193140000Y-70390000D01*
X190400000Y-76930000D02*
X190400000Y-70390000D01*
X193140000Y-76930000D02*
X190400000Y-76930000D01*
%TO.C,Q1*%
X111230000Y-57840000D02*
X114830000Y-57840000D01*
X114868478Y-57851522D02*
G75*
G02*
X113030000Y-62290000I-1838478J-1838478D01*
G01*
X111191522Y-57851522D02*
G75*
G03*
X113030000Y-62290000I1838478J-1838478D01*
G01*
%TO.C,BT3*%
X141450000Y-132130000D02*
X145450000Y-132130000D01*
X146450000Y-133130000D02*
X140450000Y-133130000D01*
X139450000Y-134130000D02*
X147450000Y-134130000D01*
X142450000Y-131130000D02*
X144450000Y-131130000D01*
X134945000Y-138440000D02*
X152075000Y-138440000D01*
X152075000Y-138440000D02*
X152075000Y-81200000D01*
X152075000Y-81200000D02*
X134945000Y-81200000D01*
X134945000Y-81200000D02*
X134945000Y-138440000D01*
X135910000Y-81920000D02*
X151110000Y-81920000D01*
X151110000Y-81920000D02*
X151110000Y-99920000D01*
X135910000Y-137720000D02*
X151110000Y-137720000D01*
X135910000Y-81920000D02*
X135910000Y-99920000D01*
X135910000Y-119720000D02*
X135910000Y-137720000D01*
X151110000Y-119720000D02*
X151110000Y-137720000D01*
X137910000Y-101920000D02*
X137910000Y-117720000D01*
X149110000Y-117720000D02*
X149110000Y-101920000D01*
X151110000Y-99920000D02*
G75*
G03*
X149110000Y-101920000I0J-2000000D01*
G01*
X149110000Y-117720000D02*
G75*
G03*
X151110000Y-119720000I2000000J0D01*
G01*
X135910000Y-119720000D02*
G75*
G03*
X137910000Y-117720000I0J2000000D01*
G01*
X137910000Y-101920000D02*
G75*
G03*
X135910000Y-99920000I-2000000J0D01*
G01*
%TO.C,BT2*%
X158230000Y-101990000D02*
X158230000Y-117790000D01*
X169430000Y-117790000D02*
X169430000Y-101990000D01*
X156230000Y-99990000D02*
X156230000Y-81990000D01*
X171430000Y-99990000D02*
X171430000Y-81990000D01*
X171430000Y-137790000D02*
X171430000Y-119790000D01*
X171430000Y-81990000D02*
X156230000Y-81990000D01*
X156230000Y-137790000D02*
X156230000Y-119790000D01*
X171430000Y-137790000D02*
X156230000Y-137790000D01*
X172395000Y-138510000D02*
X172395000Y-81270000D01*
X155265000Y-138510000D02*
X172395000Y-138510000D01*
X155265000Y-81270000D02*
X155265000Y-138510000D01*
X172395000Y-81270000D02*
X155265000Y-81270000D01*
X164890000Y-88580000D02*
X162890000Y-88580000D01*
X167890000Y-85580000D02*
X159890000Y-85580000D01*
X160890000Y-86580000D02*
X166890000Y-86580000D01*
X165890000Y-87580000D02*
X161890000Y-87580000D01*
X169430000Y-117790000D02*
G75*
G03*
X171430000Y-119790000I2000000J0D01*
G01*
X171430000Y-99990000D02*
G75*
G03*
X169430000Y-101990000I0J-2000000D01*
G01*
X158230000Y-101990000D02*
G75*
G03*
X156230000Y-99990000I-2000000J0D01*
G01*
X156230000Y-119790000D02*
G75*
G03*
X158230000Y-117790000I0J2000000D01*
G01*
%TO.C,BT1*%
X182090000Y-132130000D02*
X186090000Y-132130000D01*
X187090000Y-133130000D02*
X181090000Y-133130000D01*
X180090000Y-134130000D02*
X188090000Y-134130000D01*
X183090000Y-131130000D02*
X185090000Y-131130000D01*
X175585000Y-138440000D02*
X192715000Y-138440000D01*
X192715000Y-138440000D02*
X192715000Y-81200000D01*
X192715000Y-81200000D02*
X175585000Y-81200000D01*
X175585000Y-81200000D02*
X175585000Y-138440000D01*
X176550000Y-81920000D02*
X191750000Y-81920000D01*
X191750000Y-81920000D02*
X191750000Y-99920000D01*
X176550000Y-137720000D02*
X191750000Y-137720000D01*
X176550000Y-81920000D02*
X176550000Y-99920000D01*
X176550000Y-119720000D02*
X176550000Y-137720000D01*
X191750000Y-119720000D02*
X191750000Y-137720000D01*
X178550000Y-101920000D02*
X178550000Y-117720000D01*
X189750000Y-117720000D02*
X189750000Y-101920000D01*
X191750000Y-99920000D02*
G75*
G03*
X189750000Y-101920000I0J-2000000D01*
G01*
X189750000Y-117720000D02*
G75*
G03*
X191750000Y-119720000I2000000J0D01*
G01*
X176550000Y-119720000D02*
G75*
G03*
X178550000Y-117720000I0J2000000D01*
G01*
X178550000Y-101920000D02*
G75*
G03*
X176550000Y-99920000I-2000000J0D01*
G01*
%TO.C,J3*%
D13*
X159472380Y-49196666D02*
X160186666Y-49196666D01*
X160329523Y-49149047D01*
X160424761Y-49053809D01*
X160472380Y-48910952D01*
X160472380Y-48815714D01*
X159472380Y-49577619D02*
X159472380Y-50196666D01*
X159853333Y-49863333D01*
X159853333Y-50006190D01*
X159900952Y-50101428D01*
X159948571Y-50149047D01*
X160043809Y-50196666D01*
X160281904Y-50196666D01*
X160377142Y-50149047D01*
X160424761Y-50101428D01*
X160472380Y-50006190D01*
X160472380Y-49720476D01*
X160424761Y-49625238D01*
X160377142Y-49577619D01*
%TO.C,Y1*%
X110751190Y-123893809D02*
X111227380Y-123893809D01*
X110227380Y-123560476D02*
X110751190Y-123893809D01*
X110227380Y-124227142D01*
X111227380Y-125084285D02*
X111227380Y-124512857D01*
X111227380Y-124798571D02*
X110227380Y-124798571D01*
X110370238Y-124703333D01*
X110465476Y-124608095D01*
X110513095Y-124512857D01*
%TO.C,U6*%
X180466904Y-41362380D02*
X180466904Y-42171904D01*
X180419285Y-42267142D01*
X180371666Y-42314761D01*
X180276428Y-42362380D01*
X180085952Y-42362380D01*
X179990714Y-42314761D01*
X179943095Y-42267142D01*
X179895476Y-42171904D01*
X179895476Y-41362380D01*
X178990714Y-41362380D02*
X179181190Y-41362380D01*
X179276428Y-41410000D01*
X179324047Y-41457619D01*
X179419285Y-41600476D01*
X179466904Y-41790952D01*
X179466904Y-42171904D01*
X179419285Y-42267142D01*
X179371666Y-42314761D01*
X179276428Y-42362380D01*
X179085952Y-42362380D01*
X178990714Y-42314761D01*
X178943095Y-42267142D01*
X178895476Y-42171904D01*
X178895476Y-41933809D01*
X178943095Y-41838571D01*
X178990714Y-41790952D01*
X179085952Y-41743333D01*
X179276428Y-41743333D01*
X179371666Y-41790952D01*
X179419285Y-41838571D01*
X179466904Y-41933809D01*
X187173809Y-51522380D02*
X186554761Y-51522380D01*
X186888095Y-51903333D01*
X186745238Y-51903333D01*
X186650000Y-51950952D01*
X186602380Y-51998571D01*
X186554761Y-52093809D01*
X186554761Y-52331904D01*
X186602380Y-52427142D01*
X186650000Y-52474761D01*
X186745238Y-52522380D01*
X187030952Y-52522380D01*
X187126190Y-52474761D01*
X187173809Y-52427142D01*
X186173809Y-51617619D02*
X186126190Y-51570000D01*
X186030952Y-51522380D01*
X185792857Y-51522380D01*
X185697619Y-51570000D01*
X185650000Y-51617619D01*
X185602380Y-51712857D01*
X185602380Y-51808095D01*
X185650000Y-51950952D01*
X186221428Y-52522380D01*
X185602380Y-52522380D01*
X185030952Y-51950952D02*
X185126190Y-51903333D01*
X185173809Y-51855714D01*
X185221428Y-51760476D01*
X185221428Y-51712857D01*
X185173809Y-51617619D01*
X185126190Y-51570000D01*
X185030952Y-51522380D01*
X184840476Y-51522380D01*
X184745238Y-51570000D01*
X184697619Y-51617619D01*
X184650000Y-51712857D01*
X184650000Y-51760476D01*
X184697619Y-51855714D01*
X184745238Y-51903333D01*
X184840476Y-51950952D01*
X185030952Y-51950952D01*
X185126190Y-51998571D01*
X185173809Y-52046190D01*
X185221428Y-52141428D01*
X185221428Y-52331904D01*
X185173809Y-52427142D01*
X185126190Y-52474761D01*
X185030952Y-52522380D01*
X184840476Y-52522380D01*
X184745238Y-52474761D01*
X184697619Y-52427142D01*
X184650000Y-52331904D01*
X184650000Y-52141428D01*
X184697619Y-52046190D01*
X184745238Y-51998571D01*
X184840476Y-51950952D01*
X184459523Y-52617619D02*
X183697619Y-52617619D01*
X182888095Y-52522380D02*
X183221428Y-52046190D01*
X183459523Y-52522380D02*
X183459523Y-51522380D01*
X183078571Y-51522380D01*
X182983333Y-51570000D01*
X182935714Y-51617619D01*
X182888095Y-51712857D01*
X182888095Y-51855714D01*
X182935714Y-51950952D01*
X182983333Y-51998571D01*
X183078571Y-52046190D01*
X183459523Y-52046190D01*
X182507142Y-52474761D02*
X182364285Y-52522380D01*
X182126190Y-52522380D01*
X182030952Y-52474761D01*
X181983333Y-52427142D01*
X181935714Y-52331904D01*
X181935714Y-52236666D01*
X181983333Y-52141428D01*
X182030952Y-52093809D01*
X182126190Y-52046190D01*
X182316666Y-51998571D01*
X182411904Y-51950952D01*
X182459523Y-51903333D01*
X182507142Y-51808095D01*
X182507142Y-51712857D01*
X182459523Y-51617619D01*
X182411904Y-51570000D01*
X182316666Y-51522380D01*
X182078571Y-51522380D01*
X181935714Y-51570000D01*
X181650000Y-51522380D02*
X181078571Y-51522380D01*
X181364285Y-52522380D02*
X181364285Y-51522380D01*
%TO.C,U5*%
X103631904Y-99992380D02*
X103631904Y-100801904D01*
X103584285Y-100897142D01*
X103536666Y-100944761D01*
X103441428Y-100992380D01*
X103250952Y-100992380D01*
X103155714Y-100944761D01*
X103108095Y-100897142D01*
X103060476Y-100801904D01*
X103060476Y-99992380D01*
X102108095Y-99992380D02*
X102584285Y-99992380D01*
X102631904Y-100468571D01*
X102584285Y-100420952D01*
X102489047Y-100373333D01*
X102250952Y-100373333D01*
X102155714Y-100420952D01*
X102108095Y-100468571D01*
X102060476Y-100563809D01*
X102060476Y-100801904D01*
X102108095Y-100897142D01*
X102155714Y-100944761D01*
X102250952Y-100992380D01*
X102489047Y-100992380D01*
X102584285Y-100944761D01*
X102631904Y-100897142D01*
%TO.C,U4*%
X144022380Y-48768095D02*
X144831904Y-48768095D01*
X144927142Y-48815714D01*
X144974761Y-48863333D01*
X145022380Y-48958571D01*
X145022380Y-49149047D01*
X144974761Y-49244285D01*
X144927142Y-49291904D01*
X144831904Y-49339523D01*
X144022380Y-49339523D01*
X144355714Y-50244285D02*
X145022380Y-50244285D01*
X143974761Y-50006190D02*
X144689047Y-49768095D01*
X144689047Y-50387142D01*
X140477142Y-47394761D02*
X140572380Y-47442380D01*
X140762857Y-47442380D01*
X140858095Y-47394761D01*
X140905714Y-47299523D01*
X140905714Y-46918571D01*
X140858095Y-46823333D01*
X140762857Y-46775714D01*
X140572380Y-46775714D01*
X140477142Y-46823333D01*
X140429523Y-46918571D01*
X140429523Y-47013809D01*
X140905714Y-47109047D01*
X140000952Y-47442380D02*
X140000952Y-46442380D01*
X139524761Y-46775714D02*
X139524761Y-47442380D01*
X139524761Y-46870952D02*
X139477142Y-46823333D01*
X139381904Y-46775714D01*
X139239047Y-46775714D01*
X139143809Y-46823333D01*
X139096190Y-46918571D01*
X139096190Y-47442380D01*
X138620000Y-47442380D02*
X138620000Y-46442380D01*
X138524761Y-47061428D02*
X138239047Y-47442380D01*
X138239047Y-46775714D02*
X138620000Y-47156666D01*
X137810476Y-47442380D02*
X137810476Y-46442380D01*
X137572380Y-46442380D01*
X137429523Y-46490000D01*
X137334285Y-46585238D01*
X137286666Y-46680476D01*
X137239047Y-46870952D01*
X137239047Y-47013809D01*
X137286666Y-47204285D01*
X137334285Y-47299523D01*
X137429523Y-47394761D01*
X137572380Y-47442380D01*
X137810476Y-47442380D01*
X136810476Y-47442380D02*
X136810476Y-46775714D01*
X136810476Y-46442380D02*
X136858095Y-46490000D01*
X136810476Y-46537619D01*
X136762857Y-46490000D01*
X136810476Y-46442380D01*
X136810476Y-46537619D01*
X136381904Y-47394761D02*
X136286666Y-47442380D01*
X136096190Y-47442380D01*
X136000952Y-47394761D01*
X135953333Y-47299523D01*
X135953333Y-47251904D01*
X136000952Y-47156666D01*
X136096190Y-47109047D01*
X136239047Y-47109047D01*
X136334285Y-47061428D01*
X136381904Y-46966190D01*
X136381904Y-46918571D01*
X136334285Y-46823333D01*
X136239047Y-46775714D01*
X136096190Y-46775714D01*
X136000952Y-46823333D01*
X135524761Y-46775714D02*
X135524761Y-47775714D01*
X135524761Y-46823333D02*
X135429523Y-46775714D01*
X135239047Y-46775714D01*
X135143809Y-46823333D01*
X135096190Y-46870952D01*
X135048571Y-46966190D01*
X135048571Y-47251904D01*
X135096190Y-47347142D01*
X135143809Y-47394761D01*
X135239047Y-47442380D01*
X135429523Y-47442380D01*
X135524761Y-47394761D01*
X134477142Y-47442380D02*
X134572380Y-47394761D01*
X134620000Y-47299523D01*
X134620000Y-46442380D01*
X133667619Y-47442380D02*
X133667619Y-46918571D01*
X133715238Y-46823333D01*
X133810476Y-46775714D01*
X134000952Y-46775714D01*
X134096190Y-46823333D01*
X133667619Y-47394761D02*
X133762857Y-47442380D01*
X134000952Y-47442380D01*
X134096190Y-47394761D01*
X134143809Y-47299523D01*
X134143809Y-47204285D01*
X134096190Y-47109047D01*
X134000952Y-47061428D01*
X133762857Y-47061428D01*
X133667619Y-47013809D01*
X133286666Y-46775714D02*
X133048571Y-47442380D01*
X132810476Y-46775714D02*
X133048571Y-47442380D01*
X133143809Y-47680476D01*
X133191428Y-47728095D01*
X133286666Y-47775714D01*
X132667619Y-47537619D02*
X131905714Y-47537619D01*
X131239047Y-46775714D02*
X131239047Y-47442380D01*
X131477142Y-46394761D02*
X131715238Y-47109047D01*
X131096190Y-47109047D01*
X130715238Y-47347142D02*
X130667619Y-47394761D01*
X130715238Y-47442380D01*
X130762857Y-47394761D01*
X130715238Y-47347142D01*
X130715238Y-47442380D01*
X130334285Y-46442380D02*
X129715238Y-46442380D01*
X130048571Y-46823333D01*
X129905714Y-46823333D01*
X129810476Y-46870952D01*
X129762857Y-46918571D01*
X129715238Y-47013809D01*
X129715238Y-47251904D01*
X129762857Y-47347142D01*
X129810476Y-47394761D01*
X129905714Y-47442380D01*
X130191428Y-47442380D01*
X130286666Y-47394761D01*
X130334285Y-47347142D01*
X129286666Y-47442380D02*
X129286666Y-46775714D01*
X129286666Y-46442380D02*
X129334285Y-46490000D01*
X129286666Y-46537619D01*
X129239047Y-46490000D01*
X129286666Y-46442380D01*
X129286666Y-46537619D01*
X128810476Y-46775714D02*
X128810476Y-47442380D01*
X128810476Y-46870952D02*
X128762857Y-46823333D01*
X128667619Y-46775714D01*
X128524761Y-46775714D01*
X128429523Y-46823333D01*
X128381904Y-46918571D01*
X128381904Y-47442380D01*
%TO.C,U2*%
X167131904Y-41362380D02*
X167131904Y-42171904D01*
X167084285Y-42267142D01*
X167036666Y-42314761D01*
X166941428Y-42362380D01*
X166750952Y-42362380D01*
X166655714Y-42314761D01*
X166608095Y-42267142D01*
X166560476Y-42171904D01*
X166560476Y-41362380D01*
X166131904Y-41457619D02*
X166084285Y-41410000D01*
X165989047Y-41362380D01*
X165750952Y-41362380D01*
X165655714Y-41410000D01*
X165608095Y-41457619D01*
X165560476Y-41552857D01*
X165560476Y-41648095D01*
X165608095Y-41790952D01*
X166179523Y-42362380D01*
X165560476Y-42362380D01*
X174728095Y-51998571D02*
X174394761Y-51998571D01*
X174251904Y-52522380D02*
X174728095Y-52522380D01*
X174728095Y-51522380D01*
X174251904Y-51522380D01*
X173823333Y-52522380D02*
X173823333Y-51522380D01*
X173251904Y-52522380D01*
X173251904Y-51522380D01*
%TO.C,R11*%
X128722380Y-65397142D02*
X128246190Y-65063809D01*
X128722380Y-64825714D02*
X127722380Y-64825714D01*
X127722380Y-65206666D01*
X127770000Y-65301904D01*
X127817619Y-65349523D01*
X127912857Y-65397142D01*
X128055714Y-65397142D01*
X128150952Y-65349523D01*
X128198571Y-65301904D01*
X128246190Y-65206666D01*
X128246190Y-64825714D01*
X128722380Y-66349523D02*
X128722380Y-65778095D01*
X128722380Y-66063809D02*
X127722380Y-66063809D01*
X127865238Y-65968571D01*
X127960476Y-65873333D01*
X128008095Y-65778095D01*
X128722380Y-67301904D02*
X128722380Y-66730476D01*
X128722380Y-67016190D02*
X127722380Y-67016190D01*
X127865238Y-66920952D01*
X127960476Y-66825714D01*
X128008095Y-66730476D01*
X128722380Y-73493333D02*
X128246190Y-73160000D01*
X128722380Y-72921904D02*
X127722380Y-72921904D01*
X127722380Y-73302857D01*
X127770000Y-73398095D01*
X127817619Y-73445714D01*
X127912857Y-73493333D01*
X128055714Y-73493333D01*
X128150952Y-73445714D01*
X128198571Y-73398095D01*
X128246190Y-73302857D01*
X128246190Y-72921904D01*
X127817619Y-73874285D02*
X127770000Y-73921904D01*
X127722380Y-74017142D01*
X127722380Y-74255238D01*
X127770000Y-74350476D01*
X127817619Y-74398095D01*
X127912857Y-74445714D01*
X128008095Y-74445714D01*
X128150952Y-74398095D01*
X128722380Y-73826666D01*
X128722380Y-74445714D01*
%TO.C,R10*%
X132532380Y-65397142D02*
X132056190Y-65063809D01*
X132532380Y-64825714D02*
X131532380Y-64825714D01*
X131532380Y-65206666D01*
X131580000Y-65301904D01*
X131627619Y-65349523D01*
X131722857Y-65397142D01*
X131865714Y-65397142D01*
X131960952Y-65349523D01*
X132008571Y-65301904D01*
X132056190Y-65206666D01*
X132056190Y-64825714D01*
X132532380Y-66349523D02*
X132532380Y-65778095D01*
X132532380Y-66063809D02*
X131532380Y-66063809D01*
X131675238Y-65968571D01*
X131770476Y-65873333D01*
X131818095Y-65778095D01*
X131532380Y-66968571D02*
X131532380Y-67063809D01*
X131580000Y-67159047D01*
X131627619Y-67206666D01*
X131722857Y-67254285D01*
X131913333Y-67301904D01*
X132151428Y-67301904D01*
X132341904Y-67254285D01*
X132437142Y-67206666D01*
X132484761Y-67159047D01*
X132532380Y-67063809D01*
X132532380Y-66968571D01*
X132484761Y-66873333D01*
X132437142Y-66825714D01*
X132341904Y-66778095D01*
X132151428Y-66730476D01*
X131913333Y-66730476D01*
X131722857Y-66778095D01*
X131627619Y-66825714D01*
X131580000Y-66873333D01*
X131532380Y-66968571D01*
X132532380Y-73493333D02*
X132056190Y-73160000D01*
X132532380Y-72921904D02*
X131532380Y-72921904D01*
X131532380Y-73302857D01*
X131580000Y-73398095D01*
X131627619Y-73445714D01*
X131722857Y-73493333D01*
X131865714Y-73493333D01*
X131960952Y-73445714D01*
X132008571Y-73398095D01*
X132056190Y-73302857D01*
X132056190Y-72921904D01*
X132532380Y-74445714D02*
X132532380Y-73874285D01*
X132532380Y-74160000D02*
X131532380Y-74160000D01*
X131675238Y-74064761D01*
X131770476Y-73969523D01*
X131818095Y-73874285D01*
%TO.C,R9*%
X179522380Y-65873333D02*
X179046190Y-65540000D01*
X179522380Y-65301904D02*
X178522380Y-65301904D01*
X178522380Y-65682857D01*
X178570000Y-65778095D01*
X178617619Y-65825714D01*
X178712857Y-65873333D01*
X178855714Y-65873333D01*
X178950952Y-65825714D01*
X178998571Y-65778095D01*
X179046190Y-65682857D01*
X179046190Y-65301904D01*
X179522380Y-66349523D02*
X179522380Y-66540000D01*
X179474761Y-66635238D01*
X179427142Y-66682857D01*
X179284285Y-66778095D01*
X179093809Y-66825714D01*
X178712857Y-66825714D01*
X178617619Y-66778095D01*
X178570000Y-66730476D01*
X178522380Y-66635238D01*
X178522380Y-66444761D01*
X178570000Y-66349523D01*
X178617619Y-66301904D01*
X178712857Y-66254285D01*
X178950952Y-66254285D01*
X179046190Y-66301904D01*
X179093809Y-66349523D01*
X179141428Y-66444761D01*
X179141428Y-66635238D01*
X179093809Y-66730476D01*
X179046190Y-66778095D01*
X178950952Y-66825714D01*
%TO.C,R8*%
X121102380Y-65873333D02*
X120626190Y-65540000D01*
X121102380Y-65301904D02*
X120102380Y-65301904D01*
X120102380Y-65682857D01*
X120150000Y-65778095D01*
X120197619Y-65825714D01*
X120292857Y-65873333D01*
X120435714Y-65873333D01*
X120530952Y-65825714D01*
X120578571Y-65778095D01*
X120626190Y-65682857D01*
X120626190Y-65301904D01*
X120530952Y-66444761D02*
X120483333Y-66349523D01*
X120435714Y-66301904D01*
X120340476Y-66254285D01*
X120292857Y-66254285D01*
X120197619Y-66301904D01*
X120150000Y-66349523D01*
X120102380Y-66444761D01*
X120102380Y-66635238D01*
X120150000Y-66730476D01*
X120197619Y-66778095D01*
X120292857Y-66825714D01*
X120340476Y-66825714D01*
X120435714Y-66778095D01*
X120483333Y-66730476D01*
X120530952Y-66635238D01*
X120530952Y-66444761D01*
X120578571Y-66349523D01*
X120626190Y-66301904D01*
X120721428Y-66254285D01*
X120911904Y-66254285D01*
X121007142Y-66301904D01*
X121054761Y-66349523D01*
X121102380Y-66444761D01*
X121102380Y-66635238D01*
X121054761Y-66730476D01*
X121007142Y-66778095D01*
X120911904Y-66825714D01*
X120721428Y-66825714D01*
X120626190Y-66778095D01*
X120578571Y-66730476D01*
X120530952Y-66635238D01*
X121150000Y-72094285D02*
X121578571Y-72094285D01*
X121364285Y-72094285D02*
X121364285Y-71344285D01*
X121435714Y-71451428D01*
X121507142Y-71522857D01*
X121578571Y-71558571D01*
X120685714Y-71344285D02*
X120614285Y-71344285D01*
X120542857Y-71380000D01*
X120507142Y-71415714D01*
X120471428Y-71487142D01*
X120435714Y-71630000D01*
X120435714Y-71808571D01*
X120471428Y-71951428D01*
X120507142Y-72022857D01*
X120542857Y-72058571D01*
X120614285Y-72094285D01*
X120685714Y-72094285D01*
X120757142Y-72058571D01*
X120792857Y-72022857D01*
X120828571Y-71951428D01*
X120864285Y-71808571D01*
X120864285Y-71630000D01*
X120828571Y-71487142D01*
X120792857Y-71415714D01*
X120757142Y-71380000D01*
X120685714Y-71344285D01*
X119971428Y-71344285D02*
X119900000Y-71344285D01*
X119828571Y-71380000D01*
X119792857Y-71415714D01*
X119757142Y-71487142D01*
X119721428Y-71630000D01*
X119721428Y-71808571D01*
X119757142Y-71951428D01*
X119792857Y-72022857D01*
X119828571Y-72058571D01*
X119900000Y-72094285D01*
X119971428Y-72094285D01*
X120042857Y-72058571D01*
X120078571Y-72022857D01*
X120114285Y-71951428D01*
X120150000Y-71808571D01*
X120150000Y-71630000D01*
X120114285Y-71487142D01*
X120078571Y-71415714D01*
X120042857Y-71380000D01*
X119971428Y-71344285D01*
%TO.C,R7*%
X124912380Y-65873333D02*
X124436190Y-65540000D01*
X124912380Y-65301904D02*
X123912380Y-65301904D01*
X123912380Y-65682857D01*
X123960000Y-65778095D01*
X124007619Y-65825714D01*
X124102857Y-65873333D01*
X124245714Y-65873333D01*
X124340952Y-65825714D01*
X124388571Y-65778095D01*
X124436190Y-65682857D01*
X124436190Y-65301904D01*
X123912380Y-66206666D02*
X123912380Y-66873333D01*
X124912380Y-66444761D01*
X124912380Y-73064761D02*
X124912380Y-72493333D01*
X124912380Y-72779047D02*
X123912380Y-72779047D01*
X124055238Y-72683809D01*
X124150476Y-72588571D01*
X124198095Y-72493333D01*
X123912380Y-73683809D02*
X123912380Y-73779047D01*
X123960000Y-73874285D01*
X124007619Y-73921904D01*
X124102857Y-73969523D01*
X124293333Y-74017142D01*
X124531428Y-74017142D01*
X124721904Y-73969523D01*
X124817142Y-73921904D01*
X124864761Y-73874285D01*
X124912380Y-73779047D01*
X124912380Y-73683809D01*
X124864761Y-73588571D01*
X124817142Y-73540952D01*
X124721904Y-73493333D01*
X124531428Y-73445714D01*
X124293333Y-73445714D01*
X124102857Y-73493333D01*
X124007619Y-73540952D01*
X123960000Y-73588571D01*
X123912380Y-73683809D01*
X124912380Y-74445714D02*
X123912380Y-74445714D01*
X124531428Y-74540952D02*
X124912380Y-74826666D01*
X124245714Y-74826666D02*
X124626666Y-74445714D01*
%TO.C,R6*%
X166822380Y-65873333D02*
X166346190Y-65540000D01*
X166822380Y-65301904D02*
X165822380Y-65301904D01*
X165822380Y-65682857D01*
X165870000Y-65778095D01*
X165917619Y-65825714D01*
X166012857Y-65873333D01*
X166155714Y-65873333D01*
X166250952Y-65825714D01*
X166298571Y-65778095D01*
X166346190Y-65682857D01*
X166346190Y-65301904D01*
X165822380Y-66730476D02*
X165822380Y-66540000D01*
X165870000Y-66444761D01*
X165917619Y-66397142D01*
X166060476Y-66301904D01*
X166250952Y-66254285D01*
X166631904Y-66254285D01*
X166727142Y-66301904D01*
X166774761Y-66349523D01*
X166822380Y-66444761D01*
X166822380Y-66635238D01*
X166774761Y-66730476D01*
X166727142Y-66778095D01*
X166631904Y-66825714D01*
X166393809Y-66825714D01*
X166298571Y-66778095D01*
X166250952Y-66730476D01*
X166203333Y-66635238D01*
X166203333Y-66444761D01*
X166250952Y-66349523D01*
X166298571Y-66301904D01*
X166393809Y-66254285D01*
%TO.C,R5*%
X136342380Y-65873333D02*
X135866190Y-65540000D01*
X136342380Y-65301904D02*
X135342380Y-65301904D01*
X135342380Y-65682857D01*
X135390000Y-65778095D01*
X135437619Y-65825714D01*
X135532857Y-65873333D01*
X135675714Y-65873333D01*
X135770952Y-65825714D01*
X135818571Y-65778095D01*
X135866190Y-65682857D01*
X135866190Y-65301904D01*
X135342380Y-66778095D02*
X135342380Y-66301904D01*
X135818571Y-66254285D01*
X135770952Y-66301904D01*
X135723333Y-66397142D01*
X135723333Y-66635238D01*
X135770952Y-66730476D01*
X135818571Y-66778095D01*
X135913809Y-66825714D01*
X136151904Y-66825714D01*
X136247142Y-66778095D01*
X136294761Y-66730476D01*
X136342380Y-66635238D01*
X136342380Y-66397142D01*
X136294761Y-66301904D01*
X136247142Y-66254285D01*
X136342380Y-73064761D02*
X136342380Y-72493333D01*
X136342380Y-72779047D02*
X135342380Y-72779047D01*
X135485238Y-72683809D01*
X135580476Y-72588571D01*
X135628095Y-72493333D01*
X135342380Y-73683809D02*
X135342380Y-73779047D01*
X135390000Y-73874285D01*
X135437619Y-73921904D01*
X135532857Y-73969523D01*
X135723333Y-74017142D01*
X135961428Y-74017142D01*
X136151904Y-73969523D01*
X136247142Y-73921904D01*
X136294761Y-73874285D01*
X136342380Y-73779047D01*
X136342380Y-73683809D01*
X136294761Y-73588571D01*
X136247142Y-73540952D01*
X136151904Y-73493333D01*
X135961428Y-73445714D01*
X135723333Y-73445714D01*
X135532857Y-73493333D01*
X135437619Y-73540952D01*
X135390000Y-73588571D01*
X135342380Y-73683809D01*
X136342380Y-74445714D02*
X135342380Y-74445714D01*
X135961428Y-74540952D02*
X136342380Y-74826666D01*
X135675714Y-74826666D02*
X136056666Y-74445714D01*
%TO.C,R4*%
X140152380Y-65873333D02*
X139676190Y-65540000D01*
X140152380Y-65301904D02*
X139152380Y-65301904D01*
X139152380Y-65682857D01*
X139200000Y-65778095D01*
X139247619Y-65825714D01*
X139342857Y-65873333D01*
X139485714Y-65873333D01*
X139580952Y-65825714D01*
X139628571Y-65778095D01*
X139676190Y-65682857D01*
X139676190Y-65301904D01*
X139485714Y-66730476D02*
X140152380Y-66730476D01*
X139104761Y-66492380D02*
X139819047Y-66254285D01*
X139819047Y-66873333D01*
X140152380Y-73064761D02*
X140152380Y-72493333D01*
X140152380Y-72779047D02*
X139152380Y-72779047D01*
X139295238Y-72683809D01*
X139390476Y-72588571D01*
X139438095Y-72493333D01*
X139152380Y-73683809D02*
X139152380Y-73779047D01*
X139200000Y-73874285D01*
X139247619Y-73921904D01*
X139342857Y-73969523D01*
X139533333Y-74017142D01*
X139771428Y-74017142D01*
X139961904Y-73969523D01*
X140057142Y-73921904D01*
X140104761Y-73874285D01*
X140152380Y-73779047D01*
X140152380Y-73683809D01*
X140104761Y-73588571D01*
X140057142Y-73540952D01*
X139961904Y-73493333D01*
X139771428Y-73445714D01*
X139533333Y-73445714D01*
X139342857Y-73493333D01*
X139247619Y-73540952D01*
X139200000Y-73588571D01*
X139152380Y-73683809D01*
X140152380Y-74445714D02*
X139152380Y-74445714D01*
X139771428Y-74540952D02*
X140152380Y-74826666D01*
X139485714Y-74826666D02*
X139866666Y-74445714D01*
%TO.C,R1*%
X143962380Y-65873333D02*
X143486190Y-65540000D01*
X143962380Y-65301904D02*
X142962380Y-65301904D01*
X142962380Y-65682857D01*
X143010000Y-65778095D01*
X143057619Y-65825714D01*
X143152857Y-65873333D01*
X143295714Y-65873333D01*
X143390952Y-65825714D01*
X143438571Y-65778095D01*
X143486190Y-65682857D01*
X143486190Y-65301904D01*
X143962380Y-66825714D02*
X143962380Y-66254285D01*
X143962380Y-66540000D02*
X142962380Y-66540000D01*
X143105238Y-66444761D01*
X143200476Y-66349523D01*
X143248095Y-66254285D01*
X143962380Y-73064761D02*
X143962380Y-72493333D01*
X143962380Y-72779047D02*
X142962380Y-72779047D01*
X143105238Y-72683809D01*
X143200476Y-72588571D01*
X143248095Y-72493333D01*
X142962380Y-73683809D02*
X142962380Y-73779047D01*
X143010000Y-73874285D01*
X143057619Y-73921904D01*
X143152857Y-73969523D01*
X143343333Y-74017142D01*
X143581428Y-74017142D01*
X143771904Y-73969523D01*
X143867142Y-73921904D01*
X143914761Y-73874285D01*
X143962380Y-73779047D01*
X143962380Y-73683809D01*
X143914761Y-73588571D01*
X143867142Y-73540952D01*
X143771904Y-73493333D01*
X143581428Y-73445714D01*
X143343333Y-73445714D01*
X143152857Y-73493333D01*
X143057619Y-73540952D01*
X143010000Y-73588571D01*
X142962380Y-73683809D01*
X143962380Y-74445714D02*
X142962380Y-74445714D01*
X143581428Y-74540952D02*
X143962380Y-74826666D01*
X143295714Y-74826666D02*
X143676666Y-74445714D01*
%TO.C,J2*%
X105922380Y-49196666D02*
X106636666Y-49196666D01*
X106779523Y-49149047D01*
X106874761Y-49053809D01*
X106922380Y-48910952D01*
X106922380Y-48815714D01*
X106017619Y-49625238D02*
X105970000Y-49672857D01*
X105922380Y-49768095D01*
X105922380Y-50006190D01*
X105970000Y-50101428D01*
X106017619Y-50149047D01*
X106112857Y-50196666D01*
X106208095Y-50196666D01*
X106350952Y-50149047D01*
X106922380Y-49577619D01*
X106922380Y-50196666D01*
X95590952Y-46442380D02*
X94971904Y-46442380D01*
X95305238Y-46823333D01*
X95162380Y-46823333D01*
X95067142Y-46870952D01*
X95019523Y-46918571D01*
X94971904Y-47013809D01*
X94971904Y-47251904D01*
X95019523Y-47347142D01*
X95067142Y-47394761D01*
X95162380Y-47442380D01*
X95448095Y-47442380D01*
X95543333Y-47394761D01*
X95590952Y-47347142D01*
X94590952Y-46537619D02*
X94543333Y-46490000D01*
X94448095Y-46442380D01*
X94210000Y-46442380D01*
X94114761Y-46490000D01*
X94067142Y-46537619D01*
X94019523Y-46632857D01*
X94019523Y-46728095D01*
X94067142Y-46870952D01*
X94638571Y-47442380D01*
X94019523Y-47442380D01*
X93448095Y-46870952D02*
X93543333Y-46823333D01*
X93590952Y-46775714D01*
X93638571Y-46680476D01*
X93638571Y-46632857D01*
X93590952Y-46537619D01*
X93543333Y-46490000D01*
X93448095Y-46442380D01*
X93257619Y-46442380D01*
X93162380Y-46490000D01*
X93114761Y-46537619D01*
X93067142Y-46632857D01*
X93067142Y-46680476D01*
X93114761Y-46775714D01*
X93162380Y-46823333D01*
X93257619Y-46870952D01*
X93448095Y-46870952D01*
X93543333Y-46918571D01*
X93590952Y-46966190D01*
X93638571Y-47061428D01*
X93638571Y-47251904D01*
X93590952Y-47347142D01*
X93543333Y-47394761D01*
X93448095Y-47442380D01*
X93257619Y-47442380D01*
X93162380Y-47394761D01*
X93114761Y-47347142D01*
X93067142Y-47251904D01*
X93067142Y-47061428D01*
X93114761Y-46966190D01*
X93162380Y-46918571D01*
X93257619Y-46870952D01*
X92876666Y-47537619D02*
X92114761Y-47537619D01*
X91924285Y-47394761D02*
X91781428Y-47442380D01*
X91543333Y-47442380D01*
X91448095Y-47394761D01*
X91400476Y-47347142D01*
X91352857Y-47251904D01*
X91352857Y-47156666D01*
X91400476Y-47061428D01*
X91448095Y-47013809D01*
X91543333Y-46966190D01*
X91733809Y-46918571D01*
X91829047Y-46870952D01*
X91876666Y-46823333D01*
X91924285Y-46728095D01*
X91924285Y-46632857D01*
X91876666Y-46537619D01*
X91829047Y-46490000D01*
X91733809Y-46442380D01*
X91495714Y-46442380D01*
X91352857Y-46490000D01*
X90924285Y-47442380D02*
X90924285Y-46442380D01*
X90543333Y-46442380D01*
X90448095Y-46490000D01*
X90400476Y-46537619D01*
X90352857Y-46632857D01*
X90352857Y-46775714D01*
X90400476Y-46870952D01*
X90448095Y-46918571D01*
X90543333Y-46966190D01*
X90924285Y-46966190D01*
X89924285Y-47442380D02*
X89924285Y-46442380D01*
%TO.C,J1*%
X123702380Y-49196666D02*
X124416666Y-49196666D01*
X124559523Y-49149047D01*
X124654761Y-49053809D01*
X124702380Y-48910952D01*
X124702380Y-48815714D01*
X124702380Y-50196666D02*
X124702380Y-49625238D01*
X124702380Y-49910952D02*
X123702380Y-49910952D01*
X123845238Y-49815714D01*
X123940476Y-49720476D01*
X123988095Y-49625238D01*
X115339523Y-47394761D02*
X115196666Y-47442380D01*
X114958571Y-47442380D01*
X114863333Y-47394761D01*
X114815714Y-47347142D01*
X114768095Y-47251904D01*
X114768095Y-47156666D01*
X114815714Y-47061428D01*
X114863333Y-47013809D01*
X114958571Y-46966190D01*
X115149047Y-46918571D01*
X115244285Y-46870952D01*
X115291904Y-46823333D01*
X115339523Y-46728095D01*
X115339523Y-46632857D01*
X115291904Y-46537619D01*
X115244285Y-46490000D01*
X115149047Y-46442380D01*
X114910952Y-46442380D01*
X114768095Y-46490000D01*
X114339523Y-46918571D02*
X114006190Y-46918571D01*
X113863333Y-47442380D02*
X114339523Y-47442380D01*
X114339523Y-46442380D01*
X113863333Y-46442380D01*
X112863333Y-47442380D02*
X113196666Y-46966190D01*
X113434761Y-47442380D02*
X113434761Y-46442380D01*
X113053809Y-46442380D01*
X112958571Y-46490000D01*
X112910952Y-46537619D01*
X112863333Y-46632857D01*
X112863333Y-46775714D01*
X112910952Y-46870952D01*
X112958571Y-46918571D01*
X113053809Y-46966190D01*
X113434761Y-46966190D01*
X112434761Y-47442380D02*
X112434761Y-46442380D01*
X112006190Y-47156666D02*
X111530000Y-47156666D01*
X112101428Y-47442380D02*
X111768095Y-46442380D01*
X111434761Y-47442380D01*
X110625238Y-47442380D02*
X111101428Y-47442380D01*
X111101428Y-46442380D01*
%TO.C,C2*%
X120836666Y-129407142D02*
X120884285Y-129454761D01*
X121027142Y-129502380D01*
X121122380Y-129502380D01*
X121265238Y-129454761D01*
X121360476Y-129359523D01*
X121408095Y-129264285D01*
X121455714Y-129073809D01*
X121455714Y-128930952D01*
X121408095Y-128740476D01*
X121360476Y-128645238D01*
X121265238Y-128550000D01*
X121122380Y-128502380D01*
X121027142Y-128502380D01*
X120884285Y-128550000D01*
X120836666Y-128597619D01*
X120455714Y-128597619D02*
X120408095Y-128550000D01*
X120312857Y-128502380D01*
X120074761Y-128502380D01*
X119979523Y-128550000D01*
X119931904Y-128597619D01*
X119884285Y-128692857D01*
X119884285Y-128788095D01*
X119931904Y-128930952D01*
X120503333Y-129502380D01*
X119884285Y-129502380D01*
%TO.C,C1*%
X120796666Y-124327142D02*
X120844285Y-124374761D01*
X120987142Y-124422380D01*
X121082380Y-124422380D01*
X121225238Y-124374761D01*
X121320476Y-124279523D01*
X121368095Y-124184285D01*
X121415714Y-123993809D01*
X121415714Y-123850952D01*
X121368095Y-123660476D01*
X121320476Y-123565238D01*
X121225238Y-123470000D01*
X121082380Y-123422380D01*
X120987142Y-123422380D01*
X120844285Y-123470000D01*
X120796666Y-123517619D01*
X119844285Y-124422380D02*
X120415714Y-124422380D01*
X120130000Y-124422380D02*
X120130000Y-123422380D01*
X120225238Y-123565238D01*
X120320476Y-123660476D01*
X120415714Y-123708095D01*
%TO.C,U3*%
X193166904Y-41362380D02*
X193166904Y-42171904D01*
X193119285Y-42267142D01*
X193071666Y-42314761D01*
X192976428Y-42362380D01*
X192785952Y-42362380D01*
X192690714Y-42314761D01*
X192643095Y-42267142D01*
X192595476Y-42171904D01*
X192595476Y-41362380D01*
X192214523Y-41362380D02*
X191595476Y-41362380D01*
X191928809Y-41743333D01*
X191785952Y-41743333D01*
X191690714Y-41790952D01*
X191643095Y-41838571D01*
X191595476Y-41933809D01*
X191595476Y-42171904D01*
X191643095Y-42267142D01*
X191690714Y-42314761D01*
X191785952Y-42362380D01*
X192071666Y-42362380D01*
X192166904Y-42314761D01*
X192214523Y-42267142D01*
X199477142Y-51998571D02*
X199334285Y-52046190D01*
X199286666Y-52093809D01*
X199239047Y-52189047D01*
X199239047Y-52331904D01*
X199286666Y-52427142D01*
X199334285Y-52474761D01*
X199429523Y-52522380D01*
X199810476Y-52522380D01*
X199810476Y-51522380D01*
X199477142Y-51522380D01*
X199381904Y-51570000D01*
X199334285Y-51617619D01*
X199286666Y-51712857D01*
X199286666Y-51808095D01*
X199334285Y-51903333D01*
X199381904Y-51950952D01*
X199477142Y-51998571D01*
X199810476Y-51998571D01*
X198620000Y-51522380D02*
X198429523Y-51522380D01*
X198334285Y-51570000D01*
X198239047Y-51665238D01*
X198191428Y-51855714D01*
X198191428Y-52189047D01*
X198239047Y-52379523D01*
X198334285Y-52474761D01*
X198429523Y-52522380D01*
X198620000Y-52522380D01*
X198715238Y-52474761D01*
X198810476Y-52379523D01*
X198858095Y-52189047D01*
X198858095Y-51855714D01*
X198810476Y-51665238D01*
X198715238Y-51570000D01*
X198620000Y-51522380D01*
X197572380Y-51522380D02*
X197381904Y-51522380D01*
X197286666Y-51570000D01*
X197191428Y-51665238D01*
X197143809Y-51855714D01*
X197143809Y-52189047D01*
X197191428Y-52379523D01*
X197286666Y-52474761D01*
X197381904Y-52522380D01*
X197572380Y-52522380D01*
X197667619Y-52474761D01*
X197762857Y-52379523D01*
X197810476Y-52189047D01*
X197810476Y-51855714D01*
X197762857Y-51665238D01*
X197667619Y-51570000D01*
X197572380Y-51522380D01*
X196858095Y-51522380D02*
X196286666Y-51522380D01*
X196572380Y-52522380D02*
X196572380Y-51522380D01*
%TO.C,U1*%
X114191904Y-72932380D02*
X114191904Y-73741904D01*
X114144285Y-73837142D01*
X114096666Y-73884761D01*
X114001428Y-73932380D01*
X113810952Y-73932380D01*
X113715714Y-73884761D01*
X113668095Y-73837142D01*
X113620476Y-73741904D01*
X113620476Y-72932380D01*
X112620476Y-73932380D02*
X113191904Y-73932380D01*
X112906190Y-73932380D02*
X112906190Y-72932380D01*
X113001428Y-73075238D01*
X113096666Y-73170476D01*
X113191904Y-73218095D01*
%TO.C,R3*%
X90622380Y-84923333D02*
X90146190Y-84590000D01*
X90622380Y-84351904D02*
X89622380Y-84351904D01*
X89622380Y-84732857D01*
X89670000Y-84828095D01*
X89717619Y-84875714D01*
X89812857Y-84923333D01*
X89955714Y-84923333D01*
X90050952Y-84875714D01*
X90098571Y-84828095D01*
X90146190Y-84732857D01*
X90146190Y-84351904D01*
X89622380Y-85256666D02*
X89622380Y-85875714D01*
X90003333Y-85542380D01*
X90003333Y-85685238D01*
X90050952Y-85780476D01*
X90098571Y-85828095D01*
X90193809Y-85875714D01*
X90431904Y-85875714D01*
X90527142Y-85828095D01*
X90574761Y-85780476D01*
X90622380Y-85685238D01*
X90622380Y-85399523D01*
X90574761Y-85304285D01*
X90527142Y-85256666D01*
X90622380Y-92114761D02*
X90622380Y-91543333D01*
X90622380Y-91829047D02*
X89622380Y-91829047D01*
X89765238Y-91733809D01*
X89860476Y-91638571D01*
X89908095Y-91543333D01*
X89622380Y-92733809D02*
X89622380Y-92829047D01*
X89670000Y-92924285D01*
X89717619Y-92971904D01*
X89812857Y-93019523D01*
X90003333Y-93067142D01*
X90241428Y-93067142D01*
X90431904Y-93019523D01*
X90527142Y-92971904D01*
X90574761Y-92924285D01*
X90622380Y-92829047D01*
X90622380Y-92733809D01*
X90574761Y-92638571D01*
X90527142Y-92590952D01*
X90431904Y-92543333D01*
X90241428Y-92495714D01*
X90003333Y-92495714D01*
X89812857Y-92543333D01*
X89717619Y-92590952D01*
X89670000Y-92638571D01*
X89622380Y-92733809D01*
X90622380Y-93495714D02*
X89622380Y-93495714D01*
X90241428Y-93590952D02*
X90622380Y-93876666D01*
X89955714Y-93876666D02*
X90336666Y-93495714D01*
%TO.C,R2*%
X192222380Y-65873333D02*
X191746190Y-65540000D01*
X192222380Y-65301904D02*
X191222380Y-65301904D01*
X191222380Y-65682857D01*
X191270000Y-65778095D01*
X191317619Y-65825714D01*
X191412857Y-65873333D01*
X191555714Y-65873333D01*
X191650952Y-65825714D01*
X191698571Y-65778095D01*
X191746190Y-65682857D01*
X191746190Y-65301904D01*
X191317619Y-66254285D02*
X191270000Y-66301904D01*
X191222380Y-66397142D01*
X191222380Y-66635238D01*
X191270000Y-66730476D01*
X191317619Y-66778095D01*
X191412857Y-66825714D01*
X191508095Y-66825714D01*
X191650952Y-66778095D01*
X192222380Y-66206666D01*
X192222380Y-66825714D01*
%TO.C,Q1*%
X113125238Y-63797619D02*
X113220476Y-63750000D01*
X113315714Y-63654761D01*
X113458571Y-63511904D01*
X113553809Y-63464285D01*
X113649047Y-63464285D01*
X113601428Y-63702380D02*
X113696666Y-63654761D01*
X113791904Y-63559523D01*
X113839523Y-63369047D01*
X113839523Y-63035714D01*
X113791904Y-62845238D01*
X113696666Y-62750000D01*
X113601428Y-62702380D01*
X113410952Y-62702380D01*
X113315714Y-62750000D01*
X113220476Y-62845238D01*
X113172857Y-63035714D01*
X113172857Y-63369047D01*
X113220476Y-63559523D01*
X113315714Y-63654761D01*
X113410952Y-63702380D01*
X113601428Y-63702380D01*
X112220476Y-63702380D02*
X112791904Y-63702380D01*
X112506190Y-63702380D02*
X112506190Y-62702380D01*
X112601428Y-62845238D01*
X112696666Y-62940476D01*
X112791904Y-62988095D01*
%TO.C,BT3*%
X134018571Y-83014285D02*
X134066190Y-83157142D01*
X134113809Y-83204761D01*
X134209047Y-83252380D01*
X134351904Y-83252380D01*
X134447142Y-83204761D01*
X134494761Y-83157142D01*
X134542380Y-83061904D01*
X134542380Y-82680952D01*
X133542380Y-82680952D01*
X133542380Y-83014285D01*
X133590000Y-83109523D01*
X133637619Y-83157142D01*
X133732857Y-83204761D01*
X133828095Y-83204761D01*
X133923333Y-83157142D01*
X133970952Y-83109523D01*
X134018571Y-83014285D01*
X134018571Y-82680952D01*
X133542380Y-83538095D02*
X133542380Y-84109523D01*
X134542380Y-83823809D02*
X133542380Y-83823809D01*
X133542380Y-84347619D02*
X133542380Y-84966666D01*
X133923333Y-84633333D01*
X133923333Y-84776190D01*
X133970952Y-84871428D01*
X134018571Y-84919047D01*
X134113809Y-84966666D01*
X134351904Y-84966666D01*
X134447142Y-84919047D01*
X134494761Y-84871428D01*
X134542380Y-84776190D01*
X134542380Y-84490476D01*
X134494761Y-84395238D01*
X134447142Y-84347619D01*
X143521428Y-80039047D02*
X143521428Y-80800952D01*
X143902380Y-80420000D02*
X143140476Y-80420000D01*
X143521428Y-138809047D02*
X143521428Y-139570952D01*
%TO.C,BT2*%
X173178571Y-135124285D02*
X173226190Y-135267142D01*
X173273809Y-135314761D01*
X173369047Y-135362380D01*
X173511904Y-135362380D01*
X173607142Y-135314761D01*
X173654761Y-135267142D01*
X173702380Y-135171904D01*
X173702380Y-134790952D01*
X172702380Y-134790952D01*
X172702380Y-135124285D01*
X172750000Y-135219523D01*
X172797619Y-135267142D01*
X172892857Y-135314761D01*
X172988095Y-135314761D01*
X173083333Y-135267142D01*
X173130952Y-135219523D01*
X173178571Y-135124285D01*
X173178571Y-134790952D01*
X172702380Y-135648095D02*
X172702380Y-136219523D01*
X173702380Y-135933809D02*
X172702380Y-135933809D01*
X172797619Y-136505238D02*
X172750000Y-136552857D01*
X172702380Y-136648095D01*
X172702380Y-136886190D01*
X172750000Y-136981428D01*
X172797619Y-137029047D01*
X172892857Y-137076666D01*
X172988095Y-137076666D01*
X173130952Y-137029047D01*
X173702380Y-136457619D01*
X173702380Y-137076666D01*
X163961428Y-80139047D02*
X163961428Y-80900952D01*
X163961428Y-138909047D02*
X163961428Y-139670952D01*
X164342380Y-139290000D02*
X163580476Y-139290000D01*
%TO.C,BT1*%
X174658571Y-83014285D02*
X174706190Y-83157142D01*
X174753809Y-83204761D01*
X174849047Y-83252380D01*
X174991904Y-83252380D01*
X175087142Y-83204761D01*
X175134761Y-83157142D01*
X175182380Y-83061904D01*
X175182380Y-82680952D01*
X174182380Y-82680952D01*
X174182380Y-83014285D01*
X174230000Y-83109523D01*
X174277619Y-83157142D01*
X174372857Y-83204761D01*
X174468095Y-83204761D01*
X174563333Y-83157142D01*
X174610952Y-83109523D01*
X174658571Y-83014285D01*
X174658571Y-82680952D01*
X174182380Y-83538095D02*
X174182380Y-84109523D01*
X175182380Y-83823809D02*
X174182380Y-83823809D01*
X175182380Y-84966666D02*
X175182380Y-84395238D01*
X175182380Y-84680952D02*
X174182380Y-84680952D01*
X174325238Y-84585714D01*
X174420476Y-84490476D01*
X174468095Y-84395238D01*
X184161428Y-80039047D02*
X184161428Y-80800952D01*
X184542380Y-80420000D02*
X183780476Y-80420000D01*
X184161428Y-138809047D02*
X184161428Y-139570952D01*
%TD*%
M02*
