M48
; DRILL file {KiCad (5.1.9)-1} date 03/08/21 13:05:30
; FORMAT={-:-/ absolute / inch / decimal}
; #@! TF.CreationDate,2021-03-08T13:05:30-05:00
; #@! TF.GenerationSoftware,Kicad,Pcbnew,(5.1.9)-1
FMAT,2
INCH
T1C0.0157
T2C0.0295
T3C0.0300
T4C0.0315
T5C0.0394
T6C0.0402
T7C0.1000
T8C0.1039
%
G90
G05
T1
X3.7Y-4.8
X3.75Y-2.55
X3.75Y-2.6
X3.75Y-4.8
X3.75Y-5.0
X3.8Y-2.4
X3.8Y-5.05
X3.85Y-3.05
X3.9Y-2.4
X4.0Y-2.4
X4.05Y-2.6
X4.05Y-3.15
X4.05Y-4.2
X4.15Y-3.3
X4.25Y-2.45
X4.25Y-2.65
X4.3Y-2.45
X4.3Y-2.65
X4.3Y-2.85
X4.45Y-2.55
X4.5Y-2.95
X4.5Y-3.05
X4.5Y-3.15
X4.5Y-3.3
X4.5Y-3.4
X4.5Y-3.5
X4.55Y-2.85
X4.55Y-3.2
X4.55Y-3.35
X4.55Y-3.55
X4.55Y-4.2
X4.55Y-4.35
X4.6Y-2.45
X4.6Y-2.65
X4.6Y-2.85
X4.6Y-3.1
X4.6Y-3.35
X4.6Y-3.55
X4.65Y-2.65
X4.65Y-2.85
X4.65Y-3.1
X4.65Y-3.35
X4.65Y-3.45
X4.65Y-3.55
X4.7Y-2.45
X4.7Y-3.55
X4.7Y-4.25
X4.75Y-2.9
X4.75Y-2.95
X4.75Y-3.0
X4.75Y-4.1
X4.8Y-2.25
X4.85Y-2.9
X4.85Y-2.95
X4.85Y-3.0
X4.85Y-3.3
X4.9Y-2.45
X5.0Y-3.25
X5.5Y-2.9
X5.5Y-3.0
X5.7Y-2.95
X5.8Y-2.95
X6.5Y-3.55
X6.6Y-3.55
X6.65Y-1.8
X6.95Y-1.8
X6.95Y-1.9
X7.25Y-3.05
X7.45Y-3.15
X7.45Y-3.25
T2
X4.4Y-2.35
X4.45Y-2.35
X4.5Y-2.35
T3
X6.55Y-1.75
X6.55Y-1.95
X6.85Y-1.75
X6.85Y-1.95
X7.05Y-1.75
X7.05Y-1.95
X7.35Y-1.75
X7.35Y-1.95
X7.55Y-1.75
X7.55Y-1.95
X7.85Y-1.75
X7.85Y-1.95
T4
X3.55Y-3.45
X3.55Y-3.85
X3.9Y-4.05
X3.9Y-4.15
X3.9Y-4.25
X3.9Y-4.35
X3.9Y-4.45
X3.9Y-4.55
X3.9Y-4.65
X3.9Y-4.75
X3.9Y-4.85
X3.9Y-4.95
X3.9Y-5.05
X3.9Y-5.15
X3.9Y-5.25
X3.9Y-5.35
X4.2Y-4.05
X4.2Y-4.15
X4.2Y-4.25
X4.2Y-4.35
X4.2Y-4.45
X4.2Y-4.55
X4.2Y-4.65
X4.2Y-4.75
X4.2Y-4.85
X4.2Y-4.95
X4.2Y-5.05
X4.2Y-5.15
X4.2Y-5.25
X4.2Y-5.35
X4.5Y-4.8
X4.5Y-4.9929
X4.7Y-4.8
X4.7016Y-5.0
X4.75Y-2.7
X4.75Y-3.1
X4.7984Y-4.8
X4.8Y-5.0
X4.9Y-2.7
X4.9Y-3.1
X5.05Y-2.7
X5.05Y-3.1
X5.2Y-2.7
X5.2Y-3.1
X5.35Y-2.7
X5.35Y-3.1
X5.5Y-2.7
X5.5Y-3.1
X5.65Y-2.7
X5.65Y-3.1
X6.55Y-2.7
X6.55Y-3.1
X7.05Y-2.7
X7.05Y-3.1
X7.55Y-2.7
X7.55Y-3.1
T5
X3.6Y-1.95
X3.7Y-1.95
X3.8Y-1.95
X3.9Y-1.95
X4.0Y-1.95
X4.1Y-1.95
X4.4Y-1.95
X4.5Y-1.95
X4.6Y-1.95
X4.7Y-1.95
X4.8Y-1.95
X5.1Y-1.95
X5.2Y-1.95
X5.3Y-1.95
X5.4Y-1.95
X5.5Y-1.95
X5.6Y-1.95
X6.0Y-1.95
X6.1Y-1.95
X6.2Y-1.95
T6
X5.65Y-3.3
X5.65Y-5.3469
X6.45Y-3.3031
X6.45Y-5.35
X7.25Y-3.3
X7.25Y-5.3469
T7
X3.3878Y-2.235
X3.3878Y-4.9122
X7.7579Y-2.235
X7.7579Y-4.9122
T8
X5.414Y-3.4083
X5.886Y-5.2382
X6.214Y-3.4118
X6.686Y-5.2417
X7.014Y-3.4083
X7.486Y-5.2382
T0
M30
