%TF.GenerationSoftware,KiCad,Pcbnew,(5.1.9)-1*%
%TF.CreationDate,2021-03-08T13:05:12-05:00*%
%TF.ProjectId,eInk-picture-frame,65496e6b-2d70-4696-9374-7572652d6672,rev?*%
%TF.SameCoordinates,Original*%
%TF.FileFunction,Copper,L1,Top*%
%TF.FilePolarity,Positive*%
%FSLAX46Y46*%
G04 Gerber Fmt 4.6, Leading zero omitted, Abs format (unit mm)*
G04 Created by KiCad (PCBNEW (5.1.9)-1) date 2021-03-08 13:05:12*
%MOMM*%
%LPD*%
G01*
G04 APERTURE LIST*
%TA.AperFunction,ComponentPad*%
%ADD10O,1.700000X1.700000*%
%TD*%
%TA.AperFunction,ComponentPad*%
%ADD11R,1.700000X1.700000*%
%TD*%
%TA.AperFunction,ComponentPad*%
%ADD12C,1.500000*%
%TD*%
%TA.AperFunction,ComponentPad*%
%ADD13C,1.524000*%
%TD*%
%TA.AperFunction,ComponentPad*%
%ADD14O,1.600000X1.600000*%
%TD*%
%TA.AperFunction,ComponentPad*%
%ADD15R,1.600000X1.600000*%
%TD*%
%TA.AperFunction,ComponentPad*%
%ADD16C,1.600000*%
%TD*%
%TA.AperFunction,ComponentPad*%
%ADD17R,1.050000X1.500000*%
%TD*%
%TA.AperFunction,ComponentPad*%
%ADD18O,1.050000X1.500000*%
%TD*%
%TA.AperFunction,ComponentPad*%
%ADD19R,2.000000X2.000000*%
%TD*%
%TA.AperFunction,ComponentPad*%
%ADD20C,2.000000*%
%TD*%
%TA.AperFunction,ViaPad*%
%ADD21C,0.800000*%
%TD*%
%TA.AperFunction,Conductor*%
%ADD22C,0.500000*%
%TD*%
%TA.AperFunction,Conductor*%
%ADD23C,0.250000*%
%TD*%
G04 APERTURE END LIST*
D10*
%TO.P,J3,3*%
%TO.N,GND*%
X157480000Y-49530000D03*
%TO.P,J3,2*%
%TO.N,+3V3*%
X154940000Y-49530000D03*
D11*
%TO.P,J3,1*%
%TO.N,+5V*%
X152400000Y-49530000D03*
%TD*%
D12*
%TO.P,Y1,2*%
%TO.N,Net-(C2-Pad1)*%
X114300000Y-126820000D03*
%TO.P,Y1,1*%
%TO.N,Net-(C1-Pad1)*%
X114300000Y-121920000D03*
%TD*%
D13*
%TO.P,U6,4*%
%TO.N,Net-(U6-Pad4)*%
X186690000Y-44450000D03*
%TO.P,U6,3*%
%TO.N,GND*%
X186690000Y-49530000D03*
%TO.P,U6,2*%
%TO.N,Net-(R9-Pad2)*%
X179070000Y-44450000D03*
%TO.P,U6,1*%
%TO.N,328_RST*%
X179070000Y-49530000D03*
%TD*%
D14*
%TO.P,U5,28*%
%TO.N,Net-(U5-Pad28)*%
X99060000Y-102870000D03*
%TO.P,U5,14*%
%TO.N,Net-(U5-Pad14)*%
X106680000Y-135890000D03*
%TO.P,U5,27*%
%TO.N,Net-(U5-Pad27)*%
X99060000Y-105410000D03*
%TO.P,U5,13*%
%TO.N,Net-(U5-Pad13)*%
X106680000Y-133350000D03*
%TO.P,U5,26*%
%TO.N,Net-(U5-Pad26)*%
X99060000Y-107950000D03*
%TO.P,U5,12*%
%TO.N,Net-(U5-Pad12)*%
X106680000Y-130810000D03*
%TO.P,U5,25*%
%TO.N,Net-(U5-Pad25)*%
X99060000Y-110490000D03*
%TO.P,U5,11*%
%TO.N,Net-(U5-Pad11)*%
X106680000Y-128270000D03*
%TO.P,U5,24*%
%TO.N,Net-(U5-Pad24)*%
X99060000Y-113030000D03*
%TO.P,U5,10*%
%TO.N,Net-(C2-Pad1)*%
X106680000Y-125730000D03*
%TO.P,U5,23*%
%TO.N,Net-(R10-Pad2)*%
X99060000Y-115570000D03*
%TO.P,U5,9*%
%TO.N,Net-(C1-Pad1)*%
X106680000Y-123190000D03*
%TO.P,U5,22*%
%TO.N,GND*%
X99060000Y-118110000D03*
%TO.P,U5,8*%
X106680000Y-120650000D03*
%TO.P,U5,21*%
%TO.N,Net-(U5-Pad21)*%
X99060000Y-120650000D03*
%TO.P,U5,7*%
%TO.N,+5V*%
X106680000Y-118110000D03*
%TO.P,U5,20*%
X99060000Y-123190000D03*
%TO.P,U5,6*%
%TO.N,eInk_EN*%
X106680000Y-115570000D03*
%TO.P,U5,19*%
%TO.N,328_SCK*%
X99060000Y-125730000D03*
%TO.P,U5,5*%
%TO.N,eInk_DOUT*%
X106680000Y-113030000D03*
%TO.P,U5,18*%
%TO.N,328_MISO*%
X99060000Y-128270000D03*
%TO.P,U5,4*%
%TO.N,eInk_DIN*%
X106680000Y-110490000D03*
%TO.P,U5,17*%
%TO.N,328_MOSI*%
X99060000Y-130810000D03*
%TO.P,U5,3*%
%TO.N,328_TX*%
X106680000Y-107950000D03*
%TO.P,U5,16*%
%TO.N,Net-(U5-Pad16)*%
X99060000Y-133350000D03*
%TO.P,U5,2*%
%TO.N,328_RX*%
X106680000Y-105410000D03*
%TO.P,U5,15*%
%TO.N,Net-(U5-Pad15)*%
X99060000Y-135890000D03*
D15*
%TO.P,U5,1*%
%TO.N,328_RST*%
X106680000Y-102870000D03*
%TD*%
D10*
%TO.P,U4,6*%
%TO.N,Net-(Q1-Pad1)*%
X129540000Y-49530000D03*
%TO.P,U4,5*%
%TO.N,GND*%
X132080000Y-49530000D03*
%TO.P,U4,4*%
%TO.N,eInk_DOUT*%
X134620000Y-49530000D03*
%TO.P,U4,3*%
%TO.N,eInk_DIN*%
X137160000Y-49530000D03*
%TO.P,U4,2*%
%TO.N,Net-(U4-Pad2)*%
X139700000Y-49530000D03*
D11*
%TO.P,U4,1*%
%TO.N,Net-(U4-Pad1)*%
X142240000Y-49530000D03*
%TD*%
D13*
%TO.P,U2,4*%
%TO.N,GND*%
X166370000Y-49530000D03*
%TO.P,U2,3*%
%TO.N,Net-(U2-Pad3)*%
X166370000Y-44450000D03*
%TO.P,U2,2*%
%TO.N,Net-(R6-Pad2)*%
X173990000Y-49530000D03*
%TO.P,U2,1*%
%TO.N,Net-(U2-Pad1)*%
X173990000Y-44450000D03*
%TD*%
D14*
%TO.P,R11,2*%
%TO.N,GND*%
X128270000Y-68580000D03*
D16*
%TO.P,R11,1*%
%TO.N,Net-(R10-Pad2)*%
X128270000Y-78740000D03*
%TD*%
D14*
%TO.P,R10,2*%
%TO.N,Net-(R10-Pad2)*%
X132080000Y-78740000D03*
D16*
%TO.P,R10,1*%
%TO.N,+5V*%
X132080000Y-68580000D03*
%TD*%
D14*
%TO.P,R9,2*%
%TO.N,Net-(R9-Pad2)*%
X179070000Y-68580000D03*
D16*
%TO.P,R9,1*%
%TO.N,+5V*%
X179070000Y-78740000D03*
%TD*%
D14*
%TO.P,R8,2*%
%TO.N,eInk_EN*%
X120650000Y-78740000D03*
D16*
%TO.P,R8,1*%
%TO.N,Net-(Q1-Pad2)*%
X120650000Y-68580000D03*
%TD*%
D14*
%TO.P,R7,2*%
%TO.N,ESP_WAKE*%
X124460000Y-78740000D03*
D16*
%TO.P,R7,1*%
%TO.N,+3V3*%
X124460000Y-68580000D03*
%TD*%
D14*
%TO.P,R6,2*%
%TO.N,Net-(R6-Pad2)*%
X166370000Y-68580000D03*
D16*
%TO.P,R6,1*%
%TO.N,+3V3*%
X166370000Y-78740000D03*
%TD*%
D14*
%TO.P,R5,2*%
%TO.N,GND*%
X135890000Y-78740000D03*
D16*
%TO.P,R5,1*%
%TO.N,Net-(R4-Pad2)*%
X135890000Y-68580000D03*
%TD*%
D14*
%TO.P,R4,2*%
%TO.N,Net-(R4-Pad2)*%
X139700000Y-78740000D03*
D16*
%TO.P,R4,1*%
%TO.N,Net-(R1-Pad2)*%
X139700000Y-68580000D03*
%TD*%
D14*
%TO.P,R1,2*%
%TO.N,Net-(R1-Pad2)*%
X143510000Y-68580000D03*
D16*
%TO.P,R1,1*%
%TO.N,+3V3*%
X143510000Y-78740000D03*
%TD*%
D10*
%TO.P,J2,6*%
%TO.N,GND*%
X91440000Y-49530000D03*
%TO.P,J2,5*%
%TO.N,328_SCK*%
X93980000Y-49530000D03*
%TO.P,J2,4*%
%TO.N,328_MISO*%
X96520000Y-49530000D03*
%TO.P,J2,3*%
%TO.N,328_MOSI*%
X99060000Y-49530000D03*
%TO.P,J2,2*%
%TO.N,328_RST*%
X101600000Y-49530000D03*
D11*
%TO.P,J2,1*%
%TO.N,+5V*%
X104140000Y-49530000D03*
%TD*%
D10*
%TO.P,J1,5*%
%TO.N,GND*%
X111760000Y-49530000D03*
%TO.P,J1,4*%
%TO.N,328_RX*%
X114300000Y-49530000D03*
%TO.P,J1,3*%
%TO.N,328_TX*%
X116840000Y-49530000D03*
%TO.P,J1,2*%
%TO.N,+3V3*%
X119380000Y-49530000D03*
D11*
%TO.P,J1,1*%
%TO.N,+5V*%
X121920000Y-49530000D03*
%TD*%
D16*
%TO.P,C2,2*%
%TO.N,GND*%
X121920000Y-127000000D03*
%TO.P,C2,1*%
%TO.N,Net-(C2-Pad1)*%
X119420000Y-127000000D03*
%TD*%
%TO.P,C1,2*%
%TO.N,GND*%
X121880000Y-121920000D03*
%TO.P,C1,1*%
%TO.N,Net-(C1-Pad1)*%
X119380000Y-121920000D03*
%TD*%
D13*
%TO.P,U3,4*%
%TO.N,Net-(U3-Pad4)*%
X199390000Y-44450000D03*
%TO.P,U3,3*%
%TO.N,GND*%
X199390000Y-49530000D03*
%TO.P,U3,2*%
%TO.N,Net-(U3-Pad2)*%
X191770000Y-44450000D03*
%TO.P,U3,1*%
%TO.N,Net-(R2-Pad2)*%
X191770000Y-49530000D03*
%TD*%
D14*
%TO.P,R3,2*%
%TO.N,GND*%
X90170000Y-97790000D03*
D16*
%TO.P,R3,1*%
%TO.N,Net-(R3-Pad1)*%
X90170000Y-87630000D03*
%TD*%
D14*
%TO.P,R2,2*%
%TO.N,Net-(R2-Pad2)*%
X191770000Y-68580000D03*
D16*
%TO.P,R2,1*%
%TO.N,+3V3*%
X191770000Y-78740000D03*
%TD*%
D17*
%TO.P,Q1,1*%
%TO.N,Net-(Q1-Pad1)*%
X111760000Y-59690000D03*
D18*
%TO.P,Q1,3*%
%TO.N,+5V*%
X114300000Y-59690000D03*
%TO.P,Q1,2*%
%TO.N,Net-(Q1-Pad2)*%
X113030000Y-59690000D03*
%TD*%
D19*
%TO.P,BT3,1*%
%TO.N,Net-(BT2-Pad2)*%
X143510000Y-83820000D03*
D20*
%TO.P,BT3,2*%
%TO.N,GND*%
X143510000Y-135810000D03*
%TD*%
%TO.P,BT2,2*%
%TO.N,Net-(BT2-Pad2)*%
X163830000Y-83900000D03*
D19*
%TO.P,BT2,1*%
%TO.N,+3V3*%
X163830000Y-135890000D03*
%TD*%
%TO.P,BT1,1*%
%TO.N,+5V*%
X184150000Y-83820000D03*
D20*
%TO.P,BT1,2*%
%TO.N,+3V3*%
X184150000Y-135810000D03*
%TD*%
D21*
%TO.N,Net-(Q1-Pad2)*%
X113030000Y-64770000D03*
%TO.N,Net-(R2-Pad2)*%
X105410000Y-83820000D03*
X114300000Y-83820000D03*
X123190000Y-83820000D03*
X165100000Y-90170000D03*
X167640000Y-90170000D03*
X189230000Y-82550000D03*
X189230000Y-80010000D03*
%TO.N,+5V*%
X184150000Y-77470000D03*
%TO.N,+3V3*%
X114300000Y-88900000D03*
X124460000Y-62230000D03*
X121920000Y-57150000D03*
%TO.N,328_RX*%
X97790000Y-77470000D03*
X107950000Y-62230000D03*
X107950000Y-67310000D03*
%TO.N,328_TX*%
X102870000Y-106680000D03*
X102870000Y-80010000D03*
X109220000Y-62230000D03*
X109220000Y-67310000D03*
X109220000Y-72390000D03*
%TO.N,328_MISO*%
X96520000Y-60960000D03*
X95250000Y-64770000D03*
X93980000Y-121920000D03*
X96520000Y-128270000D03*
%TO.N,328_MOSI*%
X99060000Y-60960000D03*
X95250000Y-66040000D03*
X95250000Y-121920000D03*
X95250000Y-127000000D03*
%TO.N,328_RST*%
X101600000Y-60960000D03*
X102870000Y-66040000D03*
X115570000Y-72390000D03*
X115570000Y-81280000D03*
X115570000Y-85090000D03*
X115570000Y-90170000D03*
X168910000Y-45720000D03*
%TO.N,Net-(R4-Pad2)*%
X114300000Y-74930000D03*
X139700000Y-76200000D03*
X139700000Y-73660000D03*
X120650000Y-73660000D03*
X123190000Y-73660000D03*
%TO.N,Net-(R6-Pad2)*%
X114300000Y-77470000D03*
X120650000Y-74930000D03*
X123190000Y-74930000D03*
X144780000Y-74930000D03*
X147320000Y-74930000D03*
%TO.N,ESP_WAKE*%
X114300000Y-80010000D03*
X120650000Y-76200000D03*
X123190000Y-76200000D03*
%TO.N,eInk_EN*%
X114300000Y-86360000D03*
X118110000Y-90170000D03*
X118110000Y-87630000D03*
%TO.N,Net-(R9-Pad2)*%
X176530000Y-45720000D03*
X176530000Y-48260000D03*
%TO.N,Net-(R10-Pad2)*%
X127000000Y-82550000D03*
X120650000Y-104140000D03*
X115570000Y-106680000D03*
%TO.N,eInk_DOUT*%
X116840000Y-90170000D03*
X116840000Y-85090000D03*
X116840000Y-78740000D03*
X116840000Y-72390000D03*
X116840000Y-67310000D03*
X116840000Y-62230000D03*
%TO.N,eInk_DIN*%
X119380000Y-62230000D03*
X118110000Y-67310000D03*
X118110000Y-72390000D03*
X118110000Y-78740000D03*
X118110000Y-85090000D03*
X119380000Y-90170000D03*
X119380000Y-107950000D03*
X115570000Y-110490000D03*
%TD*%
D22*
%TO.N,Net-(BT2-Pad2)*%
X143510000Y-83820000D02*
X163830000Y-83820000D01*
%TO.N,Net-(Q1-Pad1)*%
X111760000Y-59690000D02*
X111760000Y-57150000D01*
X111760000Y-57150000D02*
X113030000Y-55880000D01*
X113030000Y-55880000D02*
X115570000Y-55880000D01*
X115570000Y-55880000D02*
X119380000Y-52070000D01*
X119380000Y-52070000D02*
X124460000Y-52070000D01*
X124460000Y-52070000D02*
X128270000Y-52070000D01*
X128270000Y-52070000D02*
X129540000Y-50800000D01*
X129540000Y-49530000D02*
X129540000Y-50800000D01*
D23*
%TO.N,Net-(Q1-Pad2)*%
X113030000Y-64770000D02*
X114300000Y-66040000D01*
X114300000Y-66040000D02*
X119380000Y-66040000D01*
X119380000Y-66040000D02*
X120650000Y-67310000D01*
X120650000Y-67310000D02*
X120650000Y-68580000D01*
%TO.N,Net-(R1-Pad2)*%
X139700000Y-68580000D02*
X143510000Y-68580000D01*
%TO.N,Net-(R2-Pad2)*%
X191770000Y-49530000D02*
X191770000Y-68580000D01*
X105410000Y-83820000D02*
X114300000Y-83820000D01*
X139700000Y-83820000D02*
X123190000Y-83820000D01*
X157480000Y-90170000D02*
X153670000Y-86360000D01*
X142240000Y-86360000D02*
X139700000Y-83820000D01*
X165100000Y-90170000D02*
X157480000Y-90170000D01*
X153670000Y-86360000D02*
X142240000Y-86360000D01*
X187960000Y-90170000D02*
X167640000Y-90170000D01*
X189230000Y-88900000D02*
X187960000Y-90170000D01*
X189230000Y-82550000D02*
X189230000Y-88900000D01*
X191770000Y-72390000D02*
X191770000Y-68580000D01*
X189230000Y-74930000D02*
X191770000Y-72390000D01*
X189230000Y-80010000D02*
X189230000Y-74930000D01*
D22*
%TO.N,+5V*%
X104140000Y-49530000D02*
X104140000Y-48260000D01*
X104140000Y-48260000D02*
X105410000Y-46990000D01*
X104140000Y-49530000D02*
X104140000Y-62230000D01*
X104140000Y-62230000D02*
X105410000Y-63500000D01*
X105410000Y-63500000D02*
X113030000Y-63500000D01*
X113030000Y-63500000D02*
X114300000Y-62230000D01*
X114300000Y-62230000D02*
X114300000Y-59690000D01*
X132080000Y-68580000D02*
X132080000Y-64770000D01*
X132080000Y-64770000D02*
X130810000Y-63500000D01*
X130810000Y-63500000D02*
X115570000Y-63500000D01*
X115570000Y-63500000D02*
X114300000Y-62230000D01*
X99060000Y-123190000D02*
X100330000Y-123190000D01*
X100330000Y-123190000D02*
X101600000Y-121920000D01*
X101600000Y-121920000D02*
X101600000Y-119380000D01*
X101600000Y-119380000D02*
X102870000Y-118110000D01*
X102870000Y-118110000D02*
X106680000Y-118110000D01*
X102870000Y-63500000D02*
X104140000Y-62230000D01*
X85090000Y-63500000D02*
X102870000Y-63500000D01*
X83820000Y-64770000D02*
X85090000Y-63500000D01*
X85090000Y-118110000D02*
X83820000Y-116840000D01*
X87630000Y-118110000D02*
X85090000Y-118110000D01*
X92710000Y-123190000D02*
X87630000Y-118110000D01*
X83820000Y-116840000D02*
X83820000Y-64770000D01*
X99060000Y-123190000D02*
X92710000Y-123190000D01*
X121920000Y-48260000D02*
X123190000Y-46990000D01*
X121920000Y-49530000D02*
X121920000Y-48260000D01*
X105410000Y-46990000D02*
X123190000Y-46990000D01*
X184150000Y-48260000D02*
X184150000Y-77470000D01*
X182880000Y-46990000D02*
X184150000Y-48260000D01*
X123190000Y-46990000D02*
X182880000Y-46990000D01*
X132080000Y-64770000D02*
X133350000Y-63500000D01*
X133350000Y-63500000D02*
X151130000Y-63500000D01*
X151130000Y-63500000D02*
X152400000Y-62230000D01*
X152400000Y-62230000D02*
X152400000Y-49530000D01*
%TO.N,+3V3*%
X184150000Y-135810000D02*
X163910000Y-135810000D01*
X163910000Y-135810000D02*
X163830000Y-135890000D01*
X163830000Y-135890000D02*
X163830000Y-134390000D01*
X163830000Y-134390000D02*
X163830000Y-93980000D01*
X163830000Y-93980000D02*
X166370000Y-91440000D01*
X167640000Y-81280000D02*
X166370000Y-82550000D01*
X190500000Y-81280000D02*
X167640000Y-81280000D01*
X191770000Y-78740000D02*
X191770000Y-80010000D01*
X191770000Y-80010000D02*
X190500000Y-81280000D01*
X166370000Y-82550000D02*
X166370000Y-78740000D01*
X166370000Y-91440000D02*
X166370000Y-82550000D01*
X166370000Y-82550000D02*
X165100000Y-81280000D01*
X144780000Y-81280000D02*
X143510000Y-80010000D01*
X143510000Y-80010000D02*
X143510000Y-78740000D01*
X144780000Y-81280000D02*
X143239998Y-81280000D01*
X143239998Y-81280000D02*
X121920000Y-81280000D01*
X121920000Y-81280000D02*
X120650000Y-82550000D01*
X120650000Y-82550000D02*
X120650000Y-87630000D01*
X120650000Y-87630000D02*
X119380000Y-88900000D01*
X119380000Y-88900000D02*
X115570000Y-88900000D01*
X115570000Y-88900000D02*
X114300000Y-88900000D01*
X114300000Y-88900000D02*
X114300000Y-88900000D01*
X147320000Y-81280000D02*
X144780000Y-81280000D01*
X165100000Y-81280000D02*
X147320000Y-81280000D01*
X121920000Y-81280000D02*
X121920000Y-72390000D01*
X121920000Y-72390000D02*
X124460000Y-69850000D01*
X124460000Y-69850000D02*
X124460000Y-68580000D01*
X124460000Y-62230000D02*
X124460000Y-59690000D01*
X124460000Y-59690000D02*
X121920000Y-57150000D01*
X143510000Y-78740000D02*
X144780000Y-78740000D01*
X144780000Y-78740000D02*
X146050000Y-77470000D01*
X146050000Y-77470000D02*
X146050000Y-66040000D01*
X146050000Y-66040000D02*
X147320000Y-64770000D01*
X147320000Y-64770000D02*
X152400000Y-64770000D01*
X152400000Y-64770000D02*
X154940000Y-62230000D01*
X154940000Y-62230000D02*
X154940000Y-49530000D01*
D23*
%TO.N,Net-(C1-Pad1)*%
X106680000Y-123190000D02*
X113030000Y-123190000D01*
X113030000Y-123190000D02*
X114300000Y-121920000D01*
X114300000Y-121920000D02*
X119380000Y-121920000D01*
%TO.N,Net-(C2-Pad1)*%
X106680000Y-125730000D02*
X113030000Y-125730000D01*
X113030000Y-125730000D02*
X114300000Y-127000000D01*
X114300000Y-126820000D02*
X119200000Y-126820000D01*
X119200000Y-126820000D02*
X119380000Y-127000000D01*
%TO.N,328_RX*%
X97790000Y-77470000D02*
X102870000Y-77470000D01*
X102870000Y-77470000D02*
X104140000Y-78740000D01*
X104140000Y-78740000D02*
X104140000Y-80010000D01*
X104140000Y-80010000D02*
X104140000Y-104140000D01*
X104140000Y-104140000D02*
X105410000Y-105410000D01*
X105410000Y-105410000D02*
X106680000Y-105410000D01*
X107950000Y-54610000D02*
X107950000Y-62230000D01*
X107950000Y-67310000D02*
X107950000Y-74930000D01*
X107950000Y-74930000D02*
X104140000Y-78740000D01*
X107950000Y-54610000D02*
X109220000Y-53340000D01*
X109220000Y-53340000D02*
X113030000Y-53340000D01*
X113030000Y-53340000D02*
X114300000Y-52070000D01*
X114300000Y-52070000D02*
X114300000Y-49530000D01*
%TO.N,328_TX*%
X102870000Y-106680000D02*
X102870000Y-80010000D01*
X109220000Y-55880000D02*
X109220000Y-62230000D01*
X109220000Y-67310000D02*
X109220000Y-72390000D01*
X109220000Y-55880000D02*
X110490000Y-54610000D01*
X110490000Y-54610000D02*
X115570000Y-54610000D01*
X115570000Y-54610000D02*
X116840000Y-53340000D01*
X116840000Y-53340000D02*
X116840000Y-49530000D01*
%TO.N,328_SCK*%
X93980000Y-49530000D02*
X93980000Y-60960000D01*
X93980000Y-60960000D02*
X92710000Y-62230000D01*
X92710000Y-62230000D02*
X88900000Y-62230000D01*
X88900000Y-62230000D02*
X83820000Y-62230000D01*
X83820000Y-62230000D02*
X82550000Y-63500000D01*
X82550000Y-63500000D02*
X82550000Y-77470000D01*
X82550000Y-77470000D02*
X82550000Y-127000000D01*
X82550000Y-127000000D02*
X83820000Y-128270000D01*
X99060000Y-125730000D02*
X90170000Y-125730000D01*
X90170000Y-125730000D02*
X87630000Y-128270000D01*
X87630000Y-128270000D02*
X83820000Y-128270000D01*
%TO.N,328_MISO*%
X96520000Y-49530000D02*
X96520000Y-60960000D01*
X95250000Y-64770000D02*
X86360000Y-64770000D01*
X86360000Y-64770000D02*
X85090000Y-66040000D01*
X85090000Y-66040000D02*
X85090000Y-82550000D01*
X85090000Y-82550000D02*
X85090000Y-114300000D01*
X85090000Y-114300000D02*
X86360000Y-115570000D01*
X93980000Y-121920000D02*
X93980000Y-120650000D01*
X93980000Y-120650000D02*
X88900000Y-115570000D01*
X88900000Y-115570000D02*
X86360000Y-115570000D01*
X99060000Y-128270000D02*
X96520000Y-128270000D01*
%TO.N,328_MOSI*%
X99060000Y-49530000D02*
X99060000Y-60960000D01*
X95250000Y-66040000D02*
X87630000Y-66040000D01*
X87630000Y-66040000D02*
X86360000Y-67310000D01*
X86360000Y-67310000D02*
X86360000Y-71120000D01*
X86360000Y-71120000D02*
X86360000Y-83235000D01*
X86360000Y-83235000D02*
X86360000Y-113030000D01*
X86360000Y-113030000D02*
X87630000Y-114300000D01*
X87630000Y-114300000D02*
X90170000Y-114300000D01*
X90170000Y-114300000D02*
X95250000Y-119380000D01*
X95250000Y-119380000D02*
X95250000Y-121920000D01*
X97790000Y-130810000D02*
X99060000Y-130810000D01*
X96520000Y-130810000D02*
X97790000Y-130810000D01*
X95250000Y-129540000D02*
X96520000Y-130810000D01*
X95250000Y-127000000D02*
X95250000Y-129540000D01*
%TO.N,328_RST*%
X101600000Y-49530000D02*
X101600000Y-60960000D01*
X102870000Y-66040000D02*
X111760000Y-66040000D01*
X111760000Y-66040000D02*
X113030000Y-67310000D01*
X113030000Y-67310000D02*
X115570000Y-69850000D01*
X115570000Y-69850000D02*
X115570000Y-72390000D01*
X115570000Y-81280000D02*
X115570000Y-85090000D01*
X115570000Y-90170000D02*
X115570000Y-91440000D01*
X115570000Y-91440000D02*
X114300000Y-92710000D01*
X114300000Y-92710000D02*
X107950000Y-92710000D01*
X107950000Y-92710000D02*
X106680000Y-93980000D01*
X106680000Y-93980000D02*
X106680000Y-102870000D01*
X101600000Y-49530000D02*
X105410000Y-45720000D01*
X105410000Y-45720000D02*
X106680000Y-45720000D01*
X106680000Y-45720000D02*
X111760000Y-45720000D01*
X111760000Y-45720000D02*
X168910000Y-45720000D01*
%TO.N,Net-(R4-Pad2)*%
X139700000Y-78740000D02*
X139700000Y-76200000D01*
X139700000Y-73660000D02*
X139700000Y-72390000D01*
X139700000Y-72390000D02*
X138430000Y-71120000D01*
X138430000Y-71120000D02*
X137160000Y-71120000D01*
X137160000Y-71120000D02*
X135890000Y-69850000D01*
X135890000Y-69850000D02*
X135890000Y-68580000D01*
X115570000Y-73660000D02*
X114300000Y-74930000D01*
X120650000Y-73660000D02*
X115570000Y-73660000D01*
X123190000Y-73660000D02*
X124460000Y-73660000D01*
X124460000Y-73660000D02*
X133350000Y-73660000D01*
X133350000Y-73660000D02*
X134620000Y-72390000D01*
X134620000Y-72390000D02*
X134620000Y-71120000D01*
X134620000Y-71120000D02*
X135890000Y-69850000D01*
%TO.N,Net-(R6-Pad2)*%
X114300000Y-77470000D02*
X116840000Y-74930000D01*
X116840000Y-74930000D02*
X120650000Y-74930000D01*
X120650000Y-74930000D02*
X120650000Y-74930000D01*
X166370000Y-68580000D02*
X166370000Y-53340000D01*
X166370000Y-53340000D02*
X167640000Y-52070000D01*
X167640000Y-52070000D02*
X172720000Y-52070000D01*
X172720000Y-52070000D02*
X173990000Y-50800000D01*
X173990000Y-50800000D02*
X173990000Y-49530000D01*
X123190000Y-74930000D02*
X144780000Y-74930000D01*
X166370000Y-73660000D02*
X166370000Y-68580000D01*
X165100000Y-74930000D02*
X166370000Y-73660000D01*
X147320000Y-74930000D02*
X165100000Y-74930000D01*
%TO.N,ESP_WAKE*%
X114300000Y-80010000D02*
X118110000Y-76200000D01*
X118110000Y-76200000D02*
X120650000Y-76200000D01*
X120650000Y-76200000D02*
X120650000Y-76200000D01*
X123190000Y-76200000D02*
X124460000Y-77470000D01*
X124460000Y-77470000D02*
X124460000Y-78740000D01*
%TO.N,eInk_EN*%
X114300000Y-86360000D02*
X118110000Y-86360000D01*
X118110000Y-86360000D02*
X119380000Y-85090000D01*
X119380000Y-85090000D02*
X119380000Y-82550000D01*
X119380000Y-82550000D02*
X120650000Y-81280000D01*
X120650000Y-81280000D02*
X120650000Y-78740000D01*
X106680000Y-115570000D02*
X116840000Y-115570000D01*
X116840000Y-115570000D02*
X118110000Y-114300000D01*
X118110000Y-114300000D02*
X118110000Y-90170000D01*
X118110000Y-87630000D02*
X118110000Y-86360000D01*
%TO.N,Net-(R9-Pad2)*%
X179070000Y-44450000D02*
X177800000Y-44450000D01*
X177800000Y-44450000D02*
X176530000Y-45720000D01*
X176530000Y-48260000D02*
X176530000Y-48825685D01*
X176530000Y-48825685D02*
X176530000Y-50800000D01*
X176530000Y-50800000D02*
X176530000Y-67310000D01*
X176530000Y-67310000D02*
X177800000Y-68580000D01*
X177800000Y-68580000D02*
X179070000Y-68580000D01*
%TO.N,Net-(R10-Pad2)*%
X128270000Y-78740000D02*
X132080000Y-78740000D01*
X127000000Y-82550000D02*
X123190000Y-82550000D01*
X123190000Y-82550000D02*
X121920000Y-83820000D01*
X121920000Y-83820000D02*
X121920000Y-88900000D01*
X121920000Y-88900000D02*
X120650000Y-90170000D01*
X120650000Y-90170000D02*
X120650000Y-99060000D01*
X120650000Y-99060000D02*
X120650000Y-104140000D01*
X115570000Y-106680000D02*
X106284998Y-106680000D01*
X106284998Y-106680000D02*
X105410000Y-106680000D01*
X105410000Y-106680000D02*
X104140000Y-107950000D01*
X104140000Y-107950000D02*
X104140000Y-114300000D01*
X104140000Y-114300000D02*
X102870000Y-115570000D01*
X102870000Y-115570000D02*
X99060000Y-115570000D01*
%TO.N,eInk_DOUT*%
X106680000Y-113030000D02*
X115570000Y-113030000D01*
X115570000Y-113030000D02*
X116840000Y-111760000D01*
X116840000Y-111760000D02*
X116840000Y-109220000D01*
X116840000Y-109220000D02*
X116840000Y-90170000D01*
X116840000Y-85090000D02*
X116840000Y-78740000D01*
X116840000Y-72390000D02*
X116840000Y-67310000D01*
X134620000Y-49530000D02*
X130810000Y-53340000D01*
X130810000Y-53340000D02*
X120650000Y-53340000D01*
X120650000Y-53340000D02*
X116840000Y-57150000D01*
X116840000Y-57150000D02*
X116840000Y-62230000D01*
%TO.N,eInk_DIN*%
X118110000Y-67310000D02*
X118110000Y-72390000D01*
X118110000Y-78740000D02*
X118110000Y-85090000D01*
X119380000Y-90170000D02*
X119380000Y-107950000D01*
X115570000Y-110490000D02*
X106680000Y-110490000D01*
X119380000Y-57150000D02*
X119380000Y-62230000D01*
X121920000Y-54610000D02*
X119380000Y-57150000D01*
X132080000Y-54610000D02*
X121920000Y-54610000D01*
X137160000Y-49530000D02*
X132080000Y-54610000D01*
%TD*%
M02*
