%TF.GenerationSoftware,KiCad,Pcbnew,(5.1.9)-1*%
%TF.CreationDate,2021-03-08T13:31:38-05:00*%
%TF.ProjectId,eInk-picture-frame-coverboard,65496e6b-2d70-4696-9374-7572652d6672,rev?*%
%TF.SameCoordinates,Original*%
%TF.FileFunction,Soldermask,Top*%
%TF.FilePolarity,Negative*%
%FSLAX46Y46*%
G04 Gerber Fmt 4.6, Leading zero omitted, Abs format (unit mm)*
G04 Created by KiCad (PCBNEW (5.1.9)-1) date 2021-03-08 13:31:38*
%MOMM*%
%LPD*%
G01*
G04 APERTURE LIST*
%ADD10C,0.100000*%
G04 APERTURE END LIST*
D10*
X67795047Y-24915761D02*
X67699809Y-24963380D01*
X67509333Y-24963380D01*
X67414095Y-24915761D01*
X67366476Y-24820523D01*
X67366476Y-24439571D01*
X67414095Y-24344333D01*
X67509333Y-24296714D01*
X67699809Y-24296714D01*
X67795047Y-24344333D01*
X67842666Y-24439571D01*
X67842666Y-24534809D01*
X67366476Y-24630047D01*
X68271238Y-24963380D02*
X68271238Y-23963380D01*
X68747428Y-24296714D02*
X68747428Y-24963380D01*
X68747428Y-24391952D02*
X68795047Y-24344333D01*
X68890285Y-24296714D01*
X69033142Y-24296714D01*
X69128380Y-24344333D01*
X69176000Y-24439571D01*
X69176000Y-24963380D01*
X69652190Y-24963380D02*
X69652190Y-23963380D01*
X69747428Y-24582428D02*
X70033142Y-24963380D01*
X70033142Y-24296714D02*
X69652190Y-24677666D01*
X70461714Y-24582428D02*
X71223619Y-24582428D01*
X71699809Y-24296714D02*
X71699809Y-25296714D01*
X71699809Y-24344333D02*
X71795047Y-24296714D01*
X71985523Y-24296714D01*
X72080761Y-24344333D01*
X72128380Y-24391952D01*
X72176000Y-24487190D01*
X72176000Y-24772904D01*
X72128380Y-24868142D01*
X72080761Y-24915761D01*
X71985523Y-24963380D01*
X71795047Y-24963380D01*
X71699809Y-24915761D01*
X72604571Y-24963380D02*
X72604571Y-24296714D01*
X72604571Y-23963380D02*
X72556952Y-24011000D01*
X72604571Y-24058619D01*
X72652190Y-24011000D01*
X72604571Y-23963380D01*
X72604571Y-24058619D01*
X73509333Y-24915761D02*
X73414095Y-24963380D01*
X73223619Y-24963380D01*
X73128380Y-24915761D01*
X73080761Y-24868142D01*
X73033142Y-24772904D01*
X73033142Y-24487190D01*
X73080761Y-24391952D01*
X73128380Y-24344333D01*
X73223619Y-24296714D01*
X73414095Y-24296714D01*
X73509333Y-24344333D01*
X73795047Y-24296714D02*
X74176000Y-24296714D01*
X73937904Y-23963380D02*
X73937904Y-24820523D01*
X73985523Y-24915761D01*
X74080761Y-24963380D01*
X74176000Y-24963380D01*
X74937904Y-24296714D02*
X74937904Y-24963380D01*
X74509333Y-24296714D02*
X74509333Y-24820523D01*
X74556952Y-24915761D01*
X74652190Y-24963380D01*
X74795047Y-24963380D01*
X74890285Y-24915761D01*
X74937904Y-24868142D01*
X75414095Y-24963380D02*
X75414095Y-24296714D01*
X75414095Y-24487190D02*
X75461714Y-24391952D01*
X75509333Y-24344333D01*
X75604571Y-24296714D01*
X75699809Y-24296714D01*
X76414095Y-24915761D02*
X76318857Y-24963380D01*
X76128380Y-24963380D01*
X76033142Y-24915761D01*
X75985523Y-24820523D01*
X75985523Y-24439571D01*
X76033142Y-24344333D01*
X76128380Y-24296714D01*
X76318857Y-24296714D01*
X76414095Y-24344333D01*
X76461714Y-24439571D01*
X76461714Y-24534809D01*
X75985523Y-24630047D01*
X76890285Y-24582428D02*
X77652190Y-24582428D01*
X77985523Y-24296714D02*
X78366476Y-24296714D01*
X78128380Y-24963380D02*
X78128380Y-24106238D01*
X78176000Y-24011000D01*
X78271238Y-23963380D01*
X78366476Y-23963380D01*
X78699809Y-24963380D02*
X78699809Y-24296714D01*
X78699809Y-24487190D02*
X78747428Y-24391952D01*
X78795047Y-24344333D01*
X78890285Y-24296714D01*
X78985523Y-24296714D01*
X79747428Y-24963380D02*
X79747428Y-24439571D01*
X79699809Y-24344333D01*
X79604571Y-24296714D01*
X79414095Y-24296714D01*
X79318857Y-24344333D01*
X79747428Y-24915761D02*
X79652190Y-24963380D01*
X79414095Y-24963380D01*
X79318857Y-24915761D01*
X79271238Y-24820523D01*
X79271238Y-24725285D01*
X79318857Y-24630047D01*
X79414095Y-24582428D01*
X79652190Y-24582428D01*
X79747428Y-24534809D01*
X80223619Y-24963380D02*
X80223619Y-24296714D01*
X80223619Y-24391952D02*
X80271238Y-24344333D01*
X80366476Y-24296714D01*
X80509333Y-24296714D01*
X80604571Y-24344333D01*
X80652190Y-24439571D01*
X80652190Y-24963380D01*
X80652190Y-24439571D02*
X80699809Y-24344333D01*
X80795047Y-24296714D01*
X80937904Y-24296714D01*
X81033142Y-24344333D01*
X81080761Y-24439571D01*
X81080761Y-24963380D01*
X81937904Y-24915761D02*
X81842666Y-24963380D01*
X81652190Y-24963380D01*
X81556952Y-24915761D01*
X81509333Y-24820523D01*
X81509333Y-24439571D01*
X81556952Y-24344333D01*
X81652190Y-24296714D01*
X81842666Y-24296714D01*
X81937904Y-24344333D01*
X81985523Y-24439571D01*
X81985523Y-24534809D01*
X81509333Y-24630047D01*
M02*
